<?xml version="1.0" encoding="UTF-8" standalone="no"?>
<!-- Created with Inkscape (http://www.inkscape.org/) -->

<svg
   xmlns:dc="http://purl.org/dc/elements/1.1/"
   xmlns:cc="http://creativecommons.org/ns#"
   xmlns:rdf="http://www.w3.org/1999/02/22-rdf-syntax-ns#"
   xmlns:svg="http://www.w3.org/2000/svg"
   xmlns="http://www.w3.org/2000/svg"
   xmlns:sodipodi="http://sodipodi.sourceforge.net/DTD/sodipodi-0.dtd"
   xmlns:inkscape="http://www.inkscape.org/namespaces/inkscape"
   width="190"
   height="300"
   id="svg2"
   version="1.1"
   inkscape:version="0.48.4 r9939"
   sodipodi:docname="ghost.svg"
   inkscape:export-filename="C:\Users\Charlie\Desktop\ghost.png"
   inkscape:export-xdpi="90"
   inkscape:export-ydpi="90">
  <defs
     id="defs4">
    <inkscape:path-effect
       effect="spiro"
       id="path-effect3836"
       is_visible="true" />
    <inkscape:path-effect
       effect="spiro"
       id="path-effect3788"
       is_visible="true" />
  </defs>
  <sodipodi:namedview
     id="base"
     pagecolor="#ffffff"
     bordercolor="#666666"
     borderopacity="1.0"
     inkscape:pageopacity="0.0"
     inkscape:pageshadow="2"
     inkscape:zoom="1.979899"
     inkscape:cx="46.127239"
     inkscape:cy="152.073"
     inkscape:document-units="px"
     inkscape:current-layer="layer1"
     showgrid="false"
     showguides="true"
     inkscape:guide-bbox="true"
     inkscape:window-width="1590"
     inkscape:window-height="926"
     inkscape:window-x="52"
     inkscape:window-y="52"
     inkscape:window-maximized="0" />
  <metadata
     id="metadata7">
    <rdf:RDF>
      <cc:Work
         rdf:about="">
        <dc:format>image/svg+xml</dc:format>
        <dc:type
           rdf:resource="http://purl.org/dc/dcmitype/StillImage" />
        <dc:title></dc:title>
      </cc:Work>
    </rdf:RDF>
  </metadata>
  <g
     inkscape:label="Layer 1"
     inkscape:groupmode="layer"
     id="layer1"
     transform="translate(0,-752.36218)">
    <path
       style="fill:#ffffff;fill-opacity:1;stroke:#000000;stroke-width:3;stroke-linecap:butt;stroke-linejoin:miter;stroke-miterlimit:4;stroke-opacity:1;stroke-dasharray:none"
       d="m 30.304576,804.36973 c 0.834806,1.53418 0.914705,3.3939 0.540439,5.09993 -0.374266,1.70603 -1.169364,3.2882 -2.016768,4.81546 -0.847405,1.52725 -1.758615,3.02868 -2.395881,4.65488 -0.637265,1.62619 -0.991802,3.41035 -0.673476,5.1277 0.370908,2.00102 1.631974,3.75268 3.183336,5.06985 1.551363,1.31716 3.387622,2.24849 5.225125,3.12327 1.837504,0.87477 3.707273,1.71227 5.376894,2.87589 1.669622,1.16363 3.149157,2.6938 3.892314,4.58836 0.710818,1.81212 0.7017,3.84659 0.283908,5.74777 -0.417792,1.90118 -1.224117,3.693 -2.080884,5.44085 -0.856768,1.74786 -1.772147,3.47421 -2.429597,5.30636 -0.657451,1.83216 -1.052168,3.79523 -0.824189,5.72838 0.264625,2.24389 1.359775,4.33065 2.805823,6.06673 1.446048,1.73609 3.234691,3.1528 5.067883,4.47358 1.833192,1.32079 3.728371,2.56192 5.460047,4.01325 1.731676,1.45133 3.310832,3.13498 4.343916,5.14441 0.958007,1.8634 1.417387,3.95585 1.536966,6.04768 0.119579,2.09182 -0.09139,4.18997 -0.41663,6.25981 -0.650478,4.13968 -1.762273,8.25301 -1.625412,12.44125 0.208129,6.3692 3.301587,12.32309 7.159257,17.3954 3.857669,5.07232 8.513976,9.48361 12.538717,14.4244 3.912603,4.80313 7.245131,10.15946 9.142997,16.05663 1.897865,5.89718 2.297645,12.37438 0.453453,18.28856 -1.039705,3.33425 -2.754019,6.41026 -4.17819,9.5993 -1.42417,3.18904 -2.579002,6.61132 -2.387802,10.09868 0.193818,3.53512 1.749824,6.83988 3.398238,9.97319 1.648414,3.1332 3.44082,6.262 4.177904,9.7248 1.067968,5.0174 -0.176773,10.1939 -1.064359,15.2463 -0.443793,2.5262 -0.799592,5.0827 -0.728993,7.6466 0.0706,2.5639 0.583713,5.15 1.793352,7.4117 1.207018,2.2568 3.151825,4.1727 5.55584,5.0507 1.468935,0.5365 3.072922,0.6754 4.622221,0.4627 1.5493,-0.2127 3.043573,-0.7718 4.386195,-1.5737 2.68525,-1.6036 4.72081,-4.1385 6.17223,-6.909 2.90284,-5.541 3.60309,-11.9746 6.03255,-17.7389 2.29985,-5.4568 6.11938,-10.1959 10.63565,-14.0259 4.51628,-3.83 9.72017,-6.7843 15.12324,-9.20758 5.11588,-2.2945 10.5791,-4.2228 14.64722,-8.08122 4.30219,-4.08043 6.55165,-9.89885 7.72493,-15.71109 1.17328,-5.81224 1.40047,-11.77535 2.37659,-17.62394 1.57493,-9.43644 5.1075,-18.77699 4.04061,-28.28427 -0.68196,-6.07711 -3.21089,-11.77202 -4.79822,-17.67768 -0.64153,-2.38681 -1.13299,-4.86386 -0.85825,-7.32007 0.13737,-1.2281 0.46916,-2.44088 1.04309,-3.53529 0.57392,-1.0944 1.39504,-2.06799 2.41973,-2.75873 1.48054,-0.99803 3.28456,-1.35833 4.96034,-1.97461 0.8379,-0.30813 1.65828,-0.68831 2.3667,-1.23159 0.70842,-0.54329 1.3027,-1.26066 1.59476,-2.10429 0.38352,-1.10782 0.21335,-2.35987 -0.30113,-3.41328 -0.51449,-1.0534 -1.34845,-1.92392 -2.27807,-2.63818 -1.85923,-1.42853 -4.12112,-2.28638 -5.89722,-3.81702 -1.39719,-1.2041 -2.44482,-2.79832 -3.05017,-4.5406 -0.60535,-1.74228 -0.7728,-3.62798 -0.54131,-5.45784 0.46297,-3.65972 2.51448,-7.01432 5.29013,-9.44407 3.63536,-3.18231 8.37552,-4.83893 12.17145,-7.82789 1.46453,-1.15319 2.80865,-2.54519 3.50787,-4.27313 0.34961,-0.86398 0.52942,-1.80301 0.46542,-2.73284 -0.064,-0.92983 -0.37802,-1.84908 -0.94283,-2.59048 -0.80175,-1.05241 -2.05312,-1.68598 -3.33688,-2.00588 -1.28375,-0.31991 -2.61796,-0.35822 -3.93905,-0.42955 -1.32109,-0.0713 -2.65964,-0.18127 -3.90293,-0.6336 -0.62164,-0.22616 -1.2153,-0.53811 -1.73034,-0.95324 -0.51503,-0.41512 -0.95021,-0.93553 -1.23294,-1.53357 -0.30685,-0.64906 -0.42854,-1.38009 -0.38045,-2.09641 0.0481,-0.71632 0.26316,-1.41757 0.59652,-2.05342 0.66672,-1.2717 1.78707,-2.25963 3.02252,-2.99133 2.4709,-1.46341 5.41314,-1.98371 7.87309,-3.46544 1.68051,-1.01224 3.08767,-2.45408 4.13685,-4.11177 1.04919,-1.6577 1.74563,-3.52751 2.1274,-5.45183 0.76353,-3.84864 0.2742,-7.851 -0.70841,-11.64961 -1.79532,-6.94043 -5.23344,-13.5465 -5.55584,-20.70812 -0.14103,-3.13282 0.3254,-6.26516 0.26474,-9.40057 -0.0303,-1.5677 -0.19437,-3.1412 -0.62461,-4.64901 -0.43025,-1.50781 -1.13452,-2.95178 -2.16551,-4.13317 -1.63288,-1.87108 -4.08273,-3.00464 -6.56599,-3.03046 -2.27894,-0.0237 -4.5184,0.8565 -6.32258,2.249 -1.80419,1.3925 -3.19255,3.27401 -4.21171,5.31249 -2.03833,4.07698 -2.62448,8.69585 -3.60785,13.14664 -1.63226,7.38771 -4.41301,14.4652 -6.56599,21.71828 -0.94096,3.16995 -1.76761,6.38971 -3.11376,9.40996 -1.34616,3.02024 -3.26471,5.87208 -5.97761,7.76263 -1.46469,1.02071 -3.15385,1.74503 -4.9252,1.96752 -1.77135,0.22249 -3.62468,-0.0744 -5.17633,-0.95736 -1.55104,-0.88259 -2.74955,-2.31825 -3.50182,-3.93651 -0.75226,-1.61826 -1.07656,-3.41285 -1.11727,-5.19695 -0.0814,-3.5682 0.93599,-7.05557 1.58864,-10.56452 2.40959,-12.95502 -0.43573,-27.02156 -8.5863,-37.37564 -2.88492,-3.66487 -6.43654,-6.87595 -10.63547,-8.90648 -4.19893,-2.03053 -9.079964,-2.81781 -13.608186,-1.70012 -4.946273,1.22088 -9.150909,4.61132 -12.219426,8.6783 -3.068518,4.06699 -5.118141,8.80017 -6.973474,13.54505 -2.464087,6.30173 -4.670504,12.96101 -4.04061,19.69798 0.177415,1.89753 0.579715,3.78857 0.459904,5.6906 -0.05991,0.95102 -0.253708,1.90149 -0.655718,2.76544 -0.402011,0.86395 -1.020348,1.63931 -1.824491,2.15056 -0.976548,0.62086 -2.184913,0.82255 -3.334174,0.68724 -1.149261,-0.13531 -2.24366,-0.59011 -3.231817,-1.19232 -3.222962,-1.96416 -5.279025,-5.39955 -6.626644,-8.92507 -1.347619,-3.52553 -2.11223,-7.25316 -3.474882,-10.7729 -2.554785,-6.59902 -7.341159,-12.42694 -13.637059,-15.65737 -3.354109,-1.721 -7.101718,-2.69298 -10.87145,-2.72448 -3.769733,-0.0315 -7.555251,0.88671 -10.84683,2.72448 -5.760234,3.21607 -9.6891145,9.01997 -12.1218298,15.15229 -0.4315349,1.0878 -0.8248914,2.19939 -1.009334,3.35503 -0.1844427,1.15565 -0.1518381,2.36501 0.251719,3.4635 0.4183487,1.13875 1.2248811,2.1162 2.2111356,2.82265 0.9862546,0.70645 2.1460996,1.1503 3.3374734,1.3792 2.3827478,0.4578 4.8390168,0.0733 7.2272118,-0.35521 2.388196,-0.42848 4.814166,-0.90259 7.223995,-0.62011 1.204915,0.14124 2.396129,0.47592 3.453795,1.07015 1.057666,0.59423 1.977972,1.45623 2.557817,2.52185"
       id="path3786"
       inkscape:path-effect="#path-effect3788"
       inkscape:original-d="m 30.304576,804.36973 c 3.486559,5.76646 -6.598554,13.27973 -4.545686,19.69797 2.398031,7.4974 15.267187,8.16397 17.677669,15.65737 2.326311,7.23174 -6.959348,14.87033 -5.050762,22.22336 2.216527,8.53941 14.606993,11.42721 17.677669,19.69797 2.871907,7.73538 -2.681701,16.78971 -0.505076,24.74874 3.290661,12.03261 14.686835,20.39611 19.697974,31.8198 4.775105,10.88561 9.88936,22.46191 9.59645,34.34519 -0.17055,6.91906 -6.72317,12.7786 -6.565992,19.69798 0.15976,7.03308 6.291872,12.78129 7.576142,19.69799 1.84411,9.9317 -4.08661,21.0666 0,30.3046 1.01253,2.2888 3.0595,5.2308 5.55584,5.0507 11.094306,-0.8005 13.526776,-17.7188 21.213196,-25.7589 7.99033,-8.358 16.34155,-16.5241 25.75889,-23.23348 4.54149,-3.23558 11.13906,-3.74683 14.64722,-8.08122 7.3046,-9.02497 7.58965,-21.99935 10.10152,-33.33503 2.0604,-9.29826 5.27509,-18.84081 4.04061,-28.28427 -0.94848,-7.25558 -5.80837,-15.15229 -4.79822,-17.67768 0.50508,-1.26269 0.19237,-8.25511 2.60457,-13.61409 2.41219,-5.35899 9.73176,-1.11382 8.9218,-5.31049 -1.30184,-6.7453 -8.61654,-3.00013 -8.47642,-9.86848 0.0743,-3.6414 -2.88878,-14.75359 1.69865,-19.44251 4.58743,-4.68893 9.76106,-5.09745 12.17145,-7.82789 4.23544,-4.79784 5.32329,-3.62142 3.03046,-9.59645 -1.81452,-4.72858 -13.16619,-0.58599 -14.14214,-5.55584 -0.98667,-5.02447 8.51253,-6.19488 11.11168,-10.6066 3.71036,-6.29786 5.57765,-13.90368 5.55584,-21.21321 -0.0213,-7.14679 -4.13554,-13.70385 -5.55584,-20.70812 -1.21605,-5.99705 1.12006,-13.26807 -2.52538,-18.18275 -1.43607,-1.93607 -4.24254,-3.67251 -6.56599,-3.03046 -8.05685,2.22639 -10.5336,13.16836 -14.14214,20.70813 -3.265,6.82197 -3.6889,14.72386 -6.56599,21.71828 -2.4639,5.98993 -3.71589,13.55951 -9.09137,17.17259 -2.80852,1.88772 -7.42664,3.08289 -10.10153,1.01016 -5.25121,-4.06909 -1.78084,-13.17332 -3.03045,-19.69798 -2.40454,-12.55489 -0.42872,-27.53385 -8.5863,-37.37564 -5.62902,-6.79119 -15.64133,-12.5575 -24.243656,-10.6066 -9.54561,2.16481 -14.870883,13.44126 -19.1929,22.22335 -2.959666,6.01388 -2.740064,13.12265 -4.04061,19.69798 -0.698344,3.53069 0.838547,8.42017 -2.020305,10.6066 -1.743645,1.33352 -4.738141,0.71047 -6.565991,-0.50508 -6.144405,-4.08612 -5.964313,-13.58785 -10.101526,-19.69797 -3.880499,-5.73099 -7.337697,-12.79022 -13.637059,-15.65737 -6.589033,-2.99899 -15.193361,-3.13604 -21.71828,0 -5.829748,2.80192 -9.6465828,9.17652 -12.1218298,15.15229 -0.875132,2.11276 -2.052413,4.93357 -0.757615,6.81853 5.075071,7.38828 21.3737138,-0.85184 26.0114278,6.81853 z"
       inkscape:connector-curvature="0"
       sodipodi:nodetypes="sssssssssssssssssssssssssssssssssssssssssssssss" />
    <path
       style="fill:#000000;fill-opacity:1;stroke:none"
       d="m 109.04939,777.73149 c -1.75595,-0.23774 -3.92093,-0.41106 -5.26339,0.74554 -0.99626,0.85833 -0.94952,2.47799 -1.125,3.78125 -0.2586,1.92061 -0.12966,3.89135 0.125,5.8125 0.22841,1.7231 0.5352,3.4781 1.25,5.0625 0.33866,0.75065 1.02162,1.30308 1.40625,2.03125 0.64023,1.21204 0.35509,3.04636 1.47321,3.83928 1.7827,1.26421 4.78569,1.47681 6.55358,0.19197 1.84368,-1.33994 1.50614,-4.32116 1.91964,-6.5625 0.276,-1.49603 0.24798,-3.03243 0.36607,-4.54911 0.11699,-1.50268 0.67768,-3.04018 0.33928,-4.50893 -0.32295,-1.40173 -1.09869,-2.77236 -2.1741,-3.72768 -1.32338,-1.17558 -3.11643,-1.87857 -4.87054,-2.11607 z m -19.263386,0.99554 c -2.46106,0.75436 -4.64199,2.7132 -5.9375,4.9375 -1.09727,1.88392 -1.2846,4.26111 -1.15625,6.4375 0.0866,1.46897 0.90445,2.80193 1.28571,4.22321 0.36063,1.34435 0.0404,3.01033 0.94643,4.06697 1.07617,1.25509 2.97008,2.10897 4.60268,1.84821 1.01901,-0.16276 1.53115,-1.39082 2.37054,-1.99107 0.81292,-0.58133 1.92297,-0.78488 2.56696,-1.54911 1.12736,-1.33786 1.29514,-3.25075 1.91072,-4.88839 0.68917,-1.83342 2.01807,-3.56825 1.99553,-5.52679 -0.02,-1.73453 -0.8523,-3.45485 -1.87946,-4.85268 -0.73803,-1.00436 -1.76938,-1.86127 -2.92411,-2.33036 -1.17347,-0.47669 -2.57026,-0.74618 -3.78125,-0.37499 z"
       id="path3798"
       inkscape:connector-curvature="0"
       sodipodi:nodetypes="aaaaaaaaaaaaaaaaaaaaaaaaaa" />
    <path
       style="fill:#000000;fill-opacity:1;stroke:none"
       d="m 82.074894,804.36973 c 0.425632,-0.19886 0.899629,-0.30221 1.368165,-0.2678 0.468536,0.0344 0.930256,0.2106 1.283485,0.52034 0.266056,0.2333 0.466309,0.53711 0.596243,0.86624 0.129935,0.32914 0.191012,0.68321 0.200893,1.03693 0.01976,0.70744 -0.161489,1.40406 -0.362287,2.08269 -0.200799,0.67863 -0.423892,1.35723 -0.491671,2.0617 -0.06778,0.70446 0.03414,1.45084 0.435622,2.03366 0.346652,0.50323 0.914942,0.85451 1.523281,0.91219 0.304169,0.0288 0.615319,-0.0139 0.899086,-0.12716 0.283767,-0.11326 0.539508,-0.29716 0.734363,-0.53249 0.325924,-0.39363 0.469568,-0.91349 0.489441,-1.42415 0.01987,-0.51067 -0.07486,-1.01835 -0.179485,-1.51857 -0.104627,-0.50023 -0.220004,-1.00143 -0.242314,-1.51199 -0.02231,-0.51057 0.05438,-1.03809 0.311168,-1.47994 0.288886,-0.49709 0.787992,-0.84955 1.329789,-1.04191 0.541796,-0.19237 1.125947,-0.23631 1.700671,-0.22078 1.296723,0.035 2.608097,0.37983 3.6618,1.13642 0.491795,0.35312 0.919075,0.78822 1.397371,1.15942 0.478296,0.37121 1.029702,0.6848 1.633089,0.73462 0.411262,0.034 0.825494,-0.0574 1.208792,-0.21025 0.383298,-0.15288 0.739314,-0.36599 1.089234,-0.58474 0.34991,-0.21874 0.69664,-0.44465 1.06728,-0.62607 0.37064,-0.18142 0.76869,-0.31827 1.18037,-0.34671 0.51867,-0.0358 1.04202,0.10412 1.49574,0.35797 0.45372,0.25385 0.8401,0.618 1.15591,1.03099 0.77303,1.01091 1.11505,2.27612 1.46032,3.50099 0.34528,1.22487 0.73277,2.48551 1.57014,3.44381 0.34675,0.39683 0.77711,0.73835 1.28242,0.88794 0.25265,0.0748 0.52138,0.0999 0.7818,0.0598 0.26041,-0.0401 0.51204,-0.14676 0.7137,-0.31635 0.20728,-0.17431 0.35765,-0.41135 0.44596,-0.66738 0.0883,-0.25603 0.11626,-0.5306 0.10147,-0.80102 -0.0296,-0.54086 -0.22521,-1.05708 -0.42116,-1.56206 -0.80469,-2.07376 -1.66801,-4.22056 -1.51523,-6.43972 0.0446,-0.64726 0.18652,-1.31162 0.57523,-1.83108 0.19436,-0.25973 0.44922,-0.47752 0.74641,-0.60755 0.29719,-0.13004 0.63739,-0.16896 0.9512,-0.0867 0.22225,0.0582 0.42707,0.17522 0.60031,0.32612 0.17324,0.15091 0.31568,0.33513 0.4315,0.53356 0.23163,0.39685 0.35638,0.8453 0.48342,1.28689 1.36177,4.73332 3.24811,9.30085 4.67196,14.01587 1.4581,4.82842 2.42599,9.99196 1.26269,14.89975 -0.13178,0.55596 -0.29374,1.11345 -0.59222,1.60066 -0.29848,0.48721 -0.7501,0.90245 -1.30182,1.05099 -0.34022,0.0916 -0.70486,0.078 -1.04433,-0.0164 -0.33946,-0.0943 -0.65433,-0.26741 -0.93132,-0.48515 -0.55399,-0.43547 -0.95034,-1.03752 -1.30734,-1.64505 -1.77496,-3.0206 -2.80948,-6.42155 -3.53554,-9.84899 -0.0867,-0.40943 -0.17123,-0.8254 -0.36036,-1.19875 -0.0946,-0.18667 -0.21529,-0.36137 -0.36676,-0.50575 -0.15148,-0.14438 -0.3345,-0.25784 -0.53557,-0.3158 -0.25146,-0.0725 -0.52524,-0.0555 -0.77178,0.0323 -0.24654,0.0878 -0.46609,0.24422 -0.64226,0.43773 -0.35233,0.38704 -0.52531,0.90695 -0.60626,1.42404 -0.19769,1.26283 0.0995,2.54266 0.31273,3.80297 0.1066,0.63015 0.19263,1.26665 0.185,1.90571 -0.008,0.63905 -0.11159,1.28358 -0.37146,1.86746 -0.2266,0.50913 -0.57844,0.97281 -1.05019,1.26947 -0.23588,0.14834 -0.49986,0.2535 -0.77479,0.29882 -0.27494,0.0453 -0.56072,0.0301 -0.82667,-0.0531 -0.32591,-0.1019 -0.61367,-0.30183 -0.86518,-0.5328 -0.2515,-0.23096 -0.47092,-0.49407 -0.70002,-0.74727 -0.2291,-0.2532 -0.47099,-0.49919 -0.75653,-0.68645 -0.28553,-0.18726 -0.61989,-0.31374 -0.96127,-0.30632 -0.27612,0.006 -0.54442,0.0987 -0.7898,0.22552 -0.24537,0.12678 -0.47132,0.2874 -0.70124,0.44043 -0.22993,0.15302 -0.466726,0.29997 -0.725908,0.39539 -0.259182,0.0954 -0.544373,0.1371 -0.813508,0.0751 -0.202042,-0.0466 -0.38731,-0.14938 -0.555127,-0.27114 -0.167818,-0.12177 -0.320418,-0.26295 -0.478642,-0.39695 -0.158224,-0.13399 -0.323917,-0.26199 -0.510483,-0.35245 -0.186567,-0.0904 -0.396623,-0.14193 -0.602318,-0.11588 -0.182167,0.0231 -0.354452,0.10676 -0.493218,0.22702 -0.138765,0.12025 -0.244743,0.27597 -0.316947,0.4448 -0.144407,0.33766 -0.153719,0.71801 -0.119006,1.08361 0.03471,0.3656 0.111041,0.72697 0.12997,1.09373 0.01893,0.36675 -0.02421,0.74896 -0.210949,1.06518 -0.193807,0.32819 -0.534905,0.55982 -0.906663,0.64389 -0.371757,0.0841 -0.769751,0.0255 -1.113647,-0.13882 -0.408687,-0.1953 -0.739754,-0.53379 -0.966779,-0.92574 -0.227024,-0.39195 -0.354462,-0.83576 -0.417108,-1.28436 -0.125292,-0.8972 0.0018,-1.80851 -0.0051,-2.71439 -0.01062,-1.40734 -0.343792,-2.78918 -0.63134,-4.16688 -0.09908,-0.47471 -0.195683,-0.95834 -0.424211,-1.38605 -0.114264,-0.21385 -0.261528,-0.41186 -0.44582,-0.56942 -0.184292,-0.15757 -0.406701,-0.27368 -0.645199,-0.31737 -0.320801,-0.0588 -0.659238,0.0172 -0.940016,0.18314 -0.280778,0.16593 -0.505665,0.41746 -0.666091,0.70141 -0.320851,0.56791 -0.384831,1.24175 -0.414203,1.89337 -0.125714,2.78896 0.249297,5.6458 -0.50507,8.33375 -0.241052,0.85891 -0.593405,1.68191 -0.88389,2.52539 -0.09708,0.28189 -0.188567,0.569 -0.342961,0.82405 -0.154395,0.25505 -0.38156,0.47945 -0.667189,0.56491 -0.243679,0.0729 -0.51319,0.0375 -0.741945,-0.0737 -0.228755,-0.11121 -0.418158,-0.29419 -0.559709,-0.50552 -0.283102,-0.42265 -0.375407,-0.94057 -0.466116,-1.44112 -0.525812,-2.90155 -1.21477,-5.7791 -1.51523,-8.71256 -0.533914,-5.21271 0.157623,-10.58732 -1.260827,-15.63167 -0.485211,-1.72553 -1.216324,-3.40784 -1.327294,-5.19685 -0.05549,-0.8945 0.05133,-1.81057 0.41099,-2.63146 0.359663,-0.82089 0.98636,-1.54074 1.798331,-1.92011"
       id="path3834"
       inkscape:path-effect="#path-effect3836"
       inkscape:original-d="m 82.074894,804.36973 c 0.65692,-0.59732 2.03911,-0.39021 2.65165,0.25254 1.86043,1.95217 -1.49634,6.14317 0.3788,8.08122 0.73401,0.75864 2.35869,0.9435 3.15673,0.25254 1.49858,-1.29751 -0.77274,-4.3212 0.37881,-5.93465 0.63573,-0.89073 1.93733,-1.21134 3.03046,-1.26269 1.27662,-0.06 2.49999,0.60393 3.6618,1.13642 1.0829,0.49633 2.52538,1.89404 3.03046,1.89404 0.50507,0 2.922436,-1.85846 4.545676,-1.76777 0.99625,0.0557 1.97161,0.65879 2.65165,1.38896 1.7214,1.84828 1.08476,5.33434 3.03046,6.9448 0.73151,0.60548 2.0236,1.20817 2.77792,0.63135 0.80312,-0.61415 0.2219,-2.02396 0.12627,-3.03046 -0.20857,-2.19531 -2.06265,-4.30355 -1.51523,-6.43972 0.28113,-1.09707 1.1423,-2.59225 2.27284,-2.52538 0.8743,0.0517 1.11998,1.365 1.51523,2.14657 2.22244,4.39467 3.67839,9.19246 4.67196,14.01587 1.00561,4.88188 2.58187,10.0931 1.26269,14.89975 -0.28748,1.04747 -0.82651,2.45106 -1.89404,2.65165 -1.285,0.24145 -2.47292,-1.12027 -3.28299,-2.14658 -2.1611,-2.73799 -2.01323,-6.71059 -3.53554,-9.84899 -0.34659,-0.71452 -0.4752,-1.91773 -1.26269,-2.0203 -0.91537,-0.11923 -1.66041,1.04398 -2.0203,1.89404 -0.9847,2.32587 1.37576,5.38112 0.12627,7.57614 -0.50361,0.88472 -1.63459,1.55919 -2.65165,1.51523 -1.32975,-0.0575 -1.96212,-2.10903 -3.283,-2.27284 -1.07064,-0.13278 -1.953826,1.20549 -3.030456,1.13642 -0.80795,-0.0518 -1.4059,-1.46335 -2.14657,-1.13642 -1.23278,0.54413 -0.0537,2.96511 -1.01015,3.91434 -0.4927,0.48898 -1.41979,0.85327 -2.02031,0.50507 -1.47546,-0.85551 -1.02902,-3.25736 -1.38896,-4.92449 -0.29647,-1.37317 -0.1244,-2.85672 -0.63134,-4.16688 -0.32857,-0.84919 -0.60488,-2.25427 -1.51523,-2.27284 -1.14473,-0.0233 -1.63345,1.70029 -2.02031,2.77792 -0.94033,2.61934 0.044,5.60544 -0.50507,8.33375 -0.17597,0.87434 -0.46988,1.73544 -0.88389,2.52539 -0.26575,0.50706 -0.43825,1.36319 -1.01015,1.38896 -0.89393,0.0403 -1.38217,-1.21281 -1.76777,-2.02031 -1.27025,-2.66005 -1.26175,-5.7757 -1.51523,-8.71256 -0.16287,-1.88703 -1.217507,-13.33732 -1.260827,-15.63167 -0.1164,-6.16536 -3.384261,-5.86914 0.882027,-9.74842 z"
       inkscape:connector-curvature="0"
       sodipodi:nodetypes="sssssssssssssssssssssssssssssssssssssssss" />
  </g>
</svg>
