<?xml version="1.0" encoding="UTF-8" standalone="no"?>
<!-- Created with Inkscape (http://www.inkscape.org/) -->

<svg
   xmlns:dc="http://purl.org/dc/elements/1.1/"
   xmlns:cc="http://creativecommons.org/ns#"
   xmlns:rdf="http://www.w3.org/1999/02/22-rdf-syntax-ns#"
   xmlns:svg="http://www.w3.org/2000/svg"
   xmlns="http://www.w3.org/2000/svg"
   xmlns:xlink="http://www.w3.org/1999/xlink"
   xmlns:sodipodi="http://sodipodi.sourceforge.net/DTD/sodipodi-0.dtd"
   xmlns:inkscape="http://www.inkscape.org/namespaces/inkscape"
   width="50"
   height="80"
   id="svg2"
   version="1.1"
   inkscape:version="0.48.4 r9939"
   inkscape:export-filename="C:\Users\Charlie\Desktop\owl_poke.png"
   inkscape:export-xdpi="90"
   inkscape:export-ydpi="90"
   sodipodi:docname="owl.svg">
  <defs
     id="defs4">
    <inkscape:path-effect
       effect="spiro"
       id="path-effect3983"
       is_visible="true" />
    <linearGradient
       id="linearGradient3877">
      <stop
         style="stop-color:#7c6858;stop-opacity:1;"
         offset="0"
         id="stop3879" />
      <stop
         style="stop-color:#b1a092;stop-opacity:1;"
         offset="1"
         id="stop3881" />
    </linearGradient>
    <inkscape:path-effect
       effect="spiro"
       id="path-effect3826"
       is_visible="true" />
    <inkscape:path-effect
       effect="spiro"
       id="path-effect3048"
       is_visible="true" />
    <radialGradient
       inkscape:collect="always"
       xlink:href="#linearGradient3877"
       id="radialGradient3883"
       cx="30.776651"
       cy="156.89551"
       fx="30.776651"
       fy="156.89551"
       r="25.84708"
       gradientTransform="matrix(0.95815379,0,0,1.4216905,-4.6736517,795.05482)"
       gradientUnits="userSpaceOnUse" />
  </defs>
  <sodipodi:namedview
     id="base"
     pagecolor="#ffffff"
     bordercolor="#666666"
     borderopacity="1.0"
     inkscape:pageopacity="0.0"
     inkscape:pageshadow="2"
     inkscape:zoom="5.6568543"
     inkscape:cx="21.19554"
     inkscape:cy="41.960606"
     inkscape:document-units="px"
     inkscape:current-layer="layer3"
     showgrid="false"
     showguides="true"
     inkscape:guide-bbox="true"
     inkscape:window-width="1920"
     inkscape:window-height="1017"
     inkscape:window-x="-8"
     inkscape:window-y="-8"
     inkscape:window-maximized="1">
    <sodipodi:guide
       orientation="1,0"
       position="60,100"
       id="guide3040" />
    <sodipodi:guide
       orientation="0,1"
       position="60,100"
       id="guide3042" />
    <sodipodi:guide
       orientation="1,0"
       position="25,25"
       id="guide3901" />
    <sodipodi:guide
       orientation="0,1"
       position="27.14785,43.247156"
       id="guide3903" />
    <sodipodi:guide
       orientation="1,0"
       position="-29.464286,94.107143"
       id="guide3905" />
    <sodipodi:guide
       orientation="1,0"
       position="50,50"
       id="guide3907" />
    <sodipodi:guide
       orientation="0,1"
       position="80,80"
       id="guide3912" />
  </sodipodi:namedview>
  <metadata
     id="metadata7">
    <rdf:RDF>
      <cc:Work
         rdf:about="">
        <dc:format>image/svg+xml</dc:format>
        <dc:type
           rdf:resource="http://purl.org/dc/dcmitype/StillImage" />
        <dc:title></dc:title>
      </cc:Work>
    </rdf:RDF>
  </metadata>
  <g
     inkscape:groupmode="layer"
     id="layer3"
     inkscape:label="BITMAPS"
     style="display:inline"
     transform="translate(0,-120)" />
  <g
     inkscape:label="BODY"
     inkscape:groupmode="layer"
     id="layer1"
     transform="translate(0,-972.36218)"
     style="display:inline">
    <path
       style="fill:url(#radialGradient3883);fill-opacity:1;stroke:#000000;stroke-width:0.97478706px;stroke-linecap:butt;stroke-linejoin:miter;stroke-opacity:1"
       d="m 11.914953,1042.3919 c -2.667154,-1.7185 -4.6251643,-4.3588 -6.102934,-7.1665 -3.9753429,-7.553 -4.7616794,-16.4476 -3.8644037,-24.9356 0.7494283,-7.0894 2.6130484,-14.08622 2.5148949,-21.21447 -0.07712,-5.6007 -1.3880691,-11.18113 -3.81281379,-16.23033 3.58187499,5.03077 9.17767289,8.58387 15.25420559,9.68578 2.980653,0.54051 6.030519,0.51158 9.05963,0.54203 3.301701,0.0332 6.633507,0.13649 9.874858,-0.49277 5.840462,-1.13384 11.160612,-4.73447 14.384111,-9.73504 -1.823097,5.43351 -2.74984,11.16663 -2.731484,16.8978 0.02103,6.56531 1.268433,13.0571 1.937145,19.5883 0.462439,4.5166 0.647608,9.0829 0.123848,13.5928 -0.52376,4.5098 -1.77541,8.975 -4.046961,12.9061 -1.840569,3.1852 -4.412485,6.0439 -7.713693,7.6673 -3.867616,1.9019 -8.359113,1.9628 -12.665498,1.7873 -4.231394,-0.1724 -8.650991,-0.5989 -12.210905,-2.8927"
       id="path3046"
       inkscape:path-effect="#path-effect3048"
       inkscape:original-d="m 11.914953,1042.3919 c -2.6440546,-1.6281 -4.7904119,-4.2866 -6.102934,-7.1665 -3.4697861,-7.6137 -3.7141067,-16.5189 -3.8644037,-24.9356 -0.1272007,-7.1233 2.9153878,-14.10204 2.5148949,-21.21447 C 4.1495283,983.51702 0.64969641,972.845 0.64969641,972.845 c 0,0 9.63635259,7.95782 15.25420559,9.68578 3.606319,1.10925 5.448389,0.41098 9.05963,0.54203 3.611241,0.13105 6.450966,0.59052 9.874858,-0.49277 5.294873,-1.67527 14.384111,-9.73504 14.384111,-9.73504 0,0 -2.555523,11.1948 -2.731484,16.8978 -0.202346,6.55816 2.095939,13.0289 1.937145,19.5883 -0.216103,8.9266 0.05481,18.5679 -3.923113,26.4989 -1.642524,3.2748 -4.504184,6.0613 -7.713693,7.6673 -3.836078,1.9197 -8.40888,1.9846 -12.665498,1.7873 -4.171372,-0.1934 -8.622377,-0.6831 -12.210905,-2.8927 z"
       inkscape:connector-curvature="0"
       sodipodi:nodetypes="aaaacssscaaaaaa" />
  </g>
  <g
     inkscape:groupmode="layer"
     id="layer6"
     inkscape:label="FEET"
     style="display:inline"
     transform="translate(0,-120)">
    <g
       style="display:inline"
       id="g3861"
       transform="matrix(-0.98772849,-0.1285818,-0.15618077,0.81318529,216.16304,-650.15117)">
      <path
         sodipodi:type="arc"
         style="fill:#ffff00;fill-opacity:1;stroke:#000000;stroke-width:1;stroke-miterlimit:4;stroke-opacity:1;stroke-dasharray:none;display:inline"
         id="path3863"
         sodipodi:cx="21.5625"
         sodipodi:cy="188.34822"
         sodipodi:rx="2.6339285"
         sodipodi:ry="6.6517859"
         d="m 24.196429,188.34822 a 2.6339285,6.6517859 0 1 1 -5.267858,0 2.6339285,6.6517859 0 1 1 5.267858,0 z"
         transform="matrix(0.87120983,0.08636846,-0.08187067,0.82584,21.232948,883.79366)" />
      <path
         sodipodi:type="arc"
         style="fill:#ffff00;fill-opacity:1;stroke:#000000;stroke-width:1;stroke-miterlimit:4;stroke-opacity:1;stroke-dasharray:none;display:inline"
         id="path3865"
         sodipodi:cx="21.5625"
         sodipodi:cy="188.34822"
         sodipodi:rx="2.6339285"
         sodipodi:ry="6.6517859"
         d="m 24.196429,188.34822 a 2.6339285,6.6517859 0 1 1 -5.267858,0 2.6339285,6.6517859 0 1 1 5.267858,0 z"
         transform="matrix(0.83783546,0.25396421,-0.24073858,0.79420366,44.285782,883.90638)" />
      <path
         transform="matrix(0.85810474,0.17355786,-0.16451953,0.81341738,33.198362,883.44984)"
         d="m 24.196429,188.34822 a 2.6339285,6.6517859 0 1 1 -5.267858,0 2.6339285,6.6517859 0 1 1 5.267858,0 z"
         sodipodi:ry="6.6517859"
         sodipodi:rx="2.6339285"
         sodipodi:cy="188.34822"
         sodipodi:cx="21.5625"
         id="path3867"
         style="fill:#ffff00;fill-opacity:1;stroke:#000000;stroke-width:1;stroke-miterlimit:4;stroke-opacity:1;stroke-dasharray:none;display:inline"
         sodipodi:type="arc" />
    </g>
    <g
       style="display:inline"
       id="g3856"
       transform="matrix(0.99286311,-0.10206119,0.11925955,0.84968284,-127.6749,-688.61926)">
      <g
         id="g3885">
        <g
           id="g3890">
          <path
             transform="matrix(0.87120983,0.08636846,-0.08187067,0.82584,21.232948,883.79366)"
             d="m 24.196429,188.34822 a 2.6339285,6.6517859 0 1 1 -5.267858,0 2.6339285,6.6517859 0 1 1 5.267858,0 z"
             sodipodi:ry="6.6517859"
             sodipodi:rx="2.6339285"
             sodipodi:cy="188.34822"
             sodipodi:cx="21.5625"
             id="path3849"
             style="fill:#ffff00;fill-opacity:1;stroke:#000000;stroke-width:1;stroke-miterlimit:4;stroke-opacity:1;stroke-dasharray:none;display:inline"
             sodipodi:type="arc" />
          <path
             transform="matrix(0.83783546,0.25396421,-0.24073858,0.79420366,44.285782,883.90638)"
             d="m 24.196429,188.34822 a 2.6339285,6.6517859 0 1 1 -5.267858,0 2.6339285,6.6517859 0 1 1 5.267858,0 z"
             sodipodi:ry="6.6517859"
             sodipodi:rx="2.6339285"
             sodipodi:cy="188.34822"
             sodipodi:cx="21.5625"
             id="path3854"
             style="fill:#ffff00;fill-opacity:1;stroke:#000000;stroke-width:1;stroke-miterlimit:4;stroke-opacity:1;stroke-dasharray:none;display:inline"
             sodipodi:type="arc" />
          <path
             sodipodi:type="arc"
             style="fill:#ffff00;fill-opacity:1;stroke:#000000;stroke-width:1;stroke-miterlimit:4;stroke-opacity:1;stroke-dasharray:none;display:inline"
             id="path3852"
             sodipodi:cx="21.5625"
             sodipodi:cy="188.34822"
             sodipodi:rx="2.6339285"
             sodipodi:ry="6.6517859"
             d="m 24.196429,188.34822 a 2.6339285,6.6517859 0 1 1 -5.267858,0 2.6339285,6.6517859 0 1 1 5.267858,0 z"
             transform="matrix(0.85810474,0.17355786,-0.16451953,0.81341738,33.198362,883.44984)" />
        </g>
      </g>
    </g>
  </g>
  <g
     inkscape:groupmode="layer"
     id="layer5"
     inkscape:label="EYES OPEN"
     style="display:inline"
     transform="translate(0,-120)">
    <path
       transform="matrix(0.86181769,0,0,0.87653925,15.856421,22.38011)"
       d="m 29.294424,143.43146 a 8.207489,11.743023 0 1 1 -16.414978,0 8.207489,11.743023 0 1 1 16.414978,0 z"
       sodipodi:ry="11.743023"
       sodipodi:rx="8.207489"
       sodipodi:cy="143.43146"
       sodipodi:cx="21.086935"
       id="path3822"
       style="fill:#ffffff;fill-opacity:1;stroke:#000000;stroke-opacity:1;display:inline"
       sodipodi:type="arc" />
    <path
       sodipodi:type="arc"
       style="fill:#ffffff;fill-opacity:1;stroke:#000000;stroke-opacity:1;display:inline"
       id="path3820"
       sodipodi:cx="21.086935"
       sodipodi:cy="143.43146"
       sodipodi:rx="8.207489"
       sodipodi:ry="11.743023"
       d="m 29.294424,143.43146 a 8.207489,11.743023 0 1 1 -16.414978,0 8.207489,11.743023 0 1 1 16.414978,0 z"
       transform="matrix(0.86181769,0,0,0.87653925,-2.2740226,22.335466)" />
  </g>
  <g
     style="display:none"
     inkscape:label="EYES BLINK"
     id="g3975"
     inkscape:groupmode="layer"
     transform="translate(0,-120)">
    <path
       sodipodi:type="arc"
       style="fill:#b1a092;fill-opacity:1;stroke:#000000;stroke-opacity:1;display:inline"
       id="path3977"
       sodipodi:cx="21.086935"
       sodipodi:cy="143.43146"
       sodipodi:rx="8.207489"
       sodipodi:ry="11.743023"
       d="m 29.294424,143.43146 a 8.207489,11.743023 0 1 1 -16.414978,0 8.207489,11.743023 0 1 1 16.414978,0 z"
       transform="matrix(0.86181769,0,0,0.87653925,15.856421,22.38011)" />
    <path
       transform="matrix(0.86181769,0,0,0.87653925,-2.2740226,22.335466)"
       d="m 29.294424,143.43146 a 8.207489,11.743023 0 1 1 -16.414978,0 8.207489,11.743023 0 1 1 16.414978,0 z"
       sodipodi:ry="11.743023"
       sodipodi:rx="8.207489"
       sodipodi:cy="143.43146"
       sodipodi:cx="21.086935"
       id="path3979"
       style="fill:#b1a092;fill-opacity:1;stroke:#000000;stroke-opacity:1;display:inline"
       sodipodi:type="arc" />
    <path
       style="fill:none;stroke:#000000;stroke-width:1px;stroke-linecap:butt;stroke-linejoin:miter;stroke-opacity:1"
       d="m 9.0291822,148.81696 c 5.1409058,1.44263 8.1468798,1.59066 13.7332588,0.0373"
       id="path3985"
       inkscape:connector-curvature="0"
       sodipodi:nodetypes="cc" />
    <path
       sodipodi:nodetypes="cc"
       inkscape:connector-curvature="0"
       id="path3989"
       d="m 40.980743,148.80613 c -5.140906,1.44263 -8.14688,1.59066 -13.733259,0.0373"
       style="fill:none;stroke:#000000;stroke-width:1px;stroke-linecap:butt;stroke-linejoin:miter;stroke-opacity:1" />
  </g>
  <g
     inkscape:groupmode="layer"
     id="layer4"
     inkscape:label="BEAK"
     style="display:inline"
     transform="translate(0,-120)">
    <path
       style="fill:#ffff00;fill-opacity:1;stroke:#000000;stroke-width:1px;stroke-linecap:butt;stroke-linejoin:miter;stroke-opacity:1;display:inline"
       d="m 21.592011,160.66717 c 0.321087,-0.64252 0.824449,-1.19271 1.435957,-1.56953 0.611508,-0.37682 1.329255,-0.57909 2.047538,-0.57704 0.714584,0.002 1.427499,0.20626 2.034784,0.58288 0.607285,0.37661 1.107086,0.92447 1.426519,1.56369 l -3.461303,5.58741 -3.483495,-5.58741"
       id="path3824"
       inkscape:path-effect="#path-effect3826"
       inkscape:original-d="m 21.592011,160.66717 c 0,0 2.119576,-2.14852 3.483495,-2.14657 1.357626,0.002 3.461303,2.14657 3.461303,2.14657 l -3.461303,5.58741 z"
       inkscape:connector-curvature="0"
       sodipodi:nodetypes="caccc" />
  </g>
  <g
     style="display:none"
     inkscape:label="BEAK OPEN"
     id="g3914"
     inkscape:groupmode="layer"
     transform="translate(0,-120)">
    <path
       sodipodi:nodetypes="ccccc"
       inkscape:connector-curvature="0"
       inkscape:original-d="M 21.592011,160.66717 25,156.01623 l 3.536809,4.65094 -3.461303,5.58741 z"
       inkscape:path-effect="#path-effect3826"
       id="path3916"
       d="M 21.592011,160.66717 25,156.01623 l 3.536809,4.65094 -3.461303,5.58741 -3.483495,-5.58741"
       style="fill:#ff5252;fill-opacity:1;stroke:#000000;stroke-width:1px;stroke-linecap:butt;stroke-linejoin:miter;stroke-opacity:1;display:inline" />
    <path
       sodipodi:type="arc"
       style="fill:#ff0000;fill-opacity:1;stroke:none"
       id="path3937"
       sodipodi:cx="25"
       sodipodi:cy="160.69875"
       sodipodi:rx="2.0689316"
       sodipodi:ry="2.0689316"
       d="m 27.068932,160.69875 a 2.0689316,2.0689316 0 1 1 -4.137864,0 2.0689316,2.0689316 0 1 1 4.137864,0 z"
       transform="matrix(0.73298915,0,0,0.73298915,6.7226221,42.939875)" />
    <path
       style="fill:none;stroke:#000000;stroke-width:1px;stroke-linecap:butt;stroke-linejoin:miter;stroke-opacity:1;display:inline"
       d="m 22.191789,160.66719 5.745242,0.0316"
       id="path3929"
       inkscape:connector-curvature="0"
       sodipodi:nodetypes="cc" />
  </g>
  <g
     inkscape:groupmode="layer"
     id="layer2"
     inkscape:label="PUPILS DOWN"
     style="display:inline"
     transform="translate(0,-120)">
    <path
       transform="matrix(1.4193548,0,0,1.3404255,54.507506,-43.860241)"
       d="m -12.248099,146.27251 a 1.9571706,2.9673231 0 1 1 -3.914341,0 1.9571706,2.9673231 0 1 1 3.914341,0 z"
       sodipodi:ry="2.9673231"
       sodipodi:rx="1.9571706"
       sodipodi:cy="146.27251"
       sodipodi:cx="-14.20527"
       id="path3830"
       style="fill:#000000;fill-opacity:1;stroke:none"
       sodipodi:type="arc" />
    <path
       sodipodi:type="arc"
       style="fill:#000000;fill-opacity:1;stroke:none"
       id="path3828"
       sodipodi:cx="-14.20527"
       sodipodi:cy="146.27251"
       sodipodi:rx="1.9571706"
       sodipodi:ry="2.9673231"
       d="m -12.248099,146.27251 a 1.9571706,2.9673231 0 1 1 -3.914341,0 1.9571706,2.9673231 0 1 1 3.914341,0 z"
       transform="matrix(1.4193548,0,0,1.3404255,36.072222,-43.986512)" />
  </g>
  <g
     style="display:none"
     inkscape:label="PUPILS LEFT"
     id="g3939"
     inkscape:groupmode="layer"
     transform="translate(0,-120)">
    <path
       sodipodi:type="arc"
       style="fill:#000000;fill-opacity:1;stroke:none"
       id="path3941"
       sodipodi:cx="-14.20527"
       sodipodi:cy="146.27251"
       sodipodi:rx="1.9571706"
       sodipodi:ry="2.9673231"
       d="m -12.248099,146.27251 a 1.9571706,2.9673231 0 1 1 -3.914341,0 1.9571706,2.9673231 0 1 1 3.914341,0 z"
       transform="matrix(1.4193548,0,0,1.3404255,51.953458,-46.206394)" />
    <path
       transform="matrix(1.4193548,0,0,1.3404255,33.785373,-46.184075)"
       d="m -12.248099,146.27251 a 1.9571706,2.9673231 0 1 1 -3.914341,0 1.9571706,2.9673231 0 1 1 3.914341,0 z"
       sodipodi:ry="2.9673231"
       sodipodi:rx="1.9571706"
       sodipodi:cy="146.27251"
       sodipodi:cx="-14.20527"
       id="path3943"
       style="fill:#000000;fill-opacity:1;stroke:none"
       sodipodi:type="arc" />
  </g>
  <g
     inkscape:groupmode="layer"
     id="g3953"
     inkscape:label="PUPILS RIGHT"
     style="display:none"
     transform="translate(0,-120)">
    <g
       id="g3959"
       inkscape:transform-center-x="-2.2929024"
       transform="matrix(-1,0,0,-1,50,299.74433)">
      <path
         sodipodi:type="arc"
         style="fill:#000000;fill-opacity:1;stroke:none"
         id="path3955"
         sodipodi:cx="-14.20527"
         sodipodi:cy="146.27251"
         sodipodi:rx="1.9571706"
         sodipodi:ry="2.9673231"
         d="m -12.248099,146.27251 a 1.9571706,2.9673231 0 1 1 -3.914341,0 1.9571706,2.9673231 0 1 1 3.914341,0 z"
         transform="matrix(1.4193548,0,0,1.3404255,51.953458,-46.206394)" />
      <path
         transform="matrix(1.4193548,0,0,1.3404255,33.785373,-46.184075)"
         d="m -12.248099,146.27251 a 1.9571706,2.9673231 0 1 1 -3.914341,0 1.9571706,2.9673231 0 1 1 3.914341,0 z"
         sodipodi:ry="2.9673231"
         sodipodi:rx="1.9571706"
         sodipodi:cy="146.27251"
         sodipodi:cx="-14.20527"
         id="path3957"
         style="fill:#000000;fill-opacity:1;stroke:none"
         sodipodi:type="arc" />
    </g>
  </g>
  <g
     style="display:none"
     inkscape:label="PUPILS ASKEW"
     id="g3963"
     inkscape:groupmode="layer"
     transform="translate(0,-120)">
    <path
       sodipodi:type="arc"
       style="fill:#000000;fill-opacity:1;stroke:none"
       id="path3967"
       sodipodi:cx="-14.20527"
       sodipodi:cy="146.27251"
       sodipodi:rx="1.9571706"
       sodipodi:ry="2.9673231"
       d="m -12.248099,146.27251 a 1.9571706,2.9673231 0 1 1 -3.914341,0 1.9571706,2.9673231 0 1 1 3.914341,0 z"
       transform="matrix(-1.4193548,0,0,-1.3404255,-1.8641723,342.33464)" />
    <path
       transform="matrix(-1.4193548,0,0,-1.3404255,12.19677,346.99983)"
       d="m -12.248099,146.27251 a 1.9571706,2.9673231 0 1 1 -3.914341,0 1.9571706,2.9673231 0 1 1 3.914341,0 z"
       sodipodi:ry="2.9673231"
       sodipodi:rx="1.9571706"
       sodipodi:cy="146.27251"
       sodipodi:cx="-14.20527"
       id="path3969"
       style="fill:#000000;fill-opacity:1;stroke:none"
       sodipodi:type="arc" />
  </g>
</svg>
