<?xml version="1.0" encoding="UTF-8" standalone="no"?>
<!-- Created with Inkscape (http://www.inkscape.org/) -->

<svg
   xmlns:dc="http://purl.org/dc/elements/1.1/"
   xmlns:cc="http://creativecommons.org/ns#"
   xmlns:rdf="http://www.w3.org/1999/02/22-rdf-syntax-ns#"
   xmlns:svg="http://www.w3.org/2000/svg"
   xmlns="http://www.w3.org/2000/svg"
   xmlns:xlink="http://www.w3.org/1999/xlink"
   xmlns:sodipodi="http://sodipodi.sourceforge.net/DTD/sodipodi-0.dtd"
   xmlns:inkscape="http://www.inkscape.org/namespaces/inkscape"
   width="270"
   height="360"
   id="svg6074"
   version="1.1"
   inkscape:version="0.48.4 r9939"
   sodipodi:docname="tree_right.svg"
   inkscape:export-filename="C:\Users\Charlie\Desktop\tree_right.png"
   inkscape:export-xdpi="90"
   inkscape:export-ydpi="90">
  <defs
     id="defs6076">
    <radialGradient
       inkscape:collect="always"
       xlink:href="#linearGradient3938"
       id="radialGradient4047"
       gradientUnits="userSpaceOnUse"
       gradientTransform="matrix(1.5155557,-0.25625734,0.52535459,3.1070492,-396.55845,-223.85601)"
       cx="566.25433"
       cy="197.29918"
       fx="566.25433"
       fy="197.29918"
       r="67.232162" />
    <linearGradient
       id="linearGradient3938">
      <stop
         style="stop-color:#525240;stop-opacity:1;"
         offset="0"
         id="stop3940" />
      <stop
         style="stop-color:#000000;stop-opacity:1;"
         offset="1"
         id="stop3942" />
    </linearGradient>
    <radialGradient
       r="67.232162"
       fy="171.07397"
       fx="328.7717"
       cy="171.07397"
       cx="328.7717"
       gradientTransform="matrix(1.2080335,-0.23779884,0.51663246,2.6245265,-295.9803,541.32524)"
       gradientUnits="userSpaceOnUse"
       id="radialGradient6072"
       xlink:href="#linearGradient3938"
       inkscape:collect="always" />
  </defs>
  <sodipodi:namedview
     id="base"
     pagecolor="#ffffff"
     bordercolor="#666666"
     borderopacity="1.0"
     inkscape:pageopacity="0.0"
     inkscape:pageshadow="2"
     inkscape:zoom="1.4"
     inkscape:cx="32.346938"
     inkscape:cy="170.50504"
     inkscape:document-units="px"
     inkscape:current-layer="layer1"
     showgrid="false"
     showguides="true"
     inkscape:guide-bbox="true"
     inkscape:window-width="1920"
     inkscape:window-height="1017"
     inkscape:window-x="-8"
     inkscape:window-y="-8"
     inkscape:window-maximized="1">
    <sodipodi:guide
       orientation="1,0"
       position="270.72088,241.42646"
       id="guide6099" />
  </sodipodi:namedview>
  <metadata
     id="metadata6079">
    <rdf:RDF>
      <cc:Work
         rdf:about="">
        <dc:format>image/svg+xml</dc:format>
        <dc:type
           rdf:resource="http://purl.org/dc/dcmitype/StillImage" />
        <dc:title></dc:title>
      </cc:Work>
    </rdf:RDF>
  </metadata>
  <g
     inkscape:label="Layer 1"
     inkscape:groupmode="layer"
     id="layer1"
     transform="translate(0,-692.36218)">
    <path
       style="fill:url(#radialGradient6072);fill-opacity:1;stroke:none;display:inline"
       d="m 192.26416,687.5527 -6.25,3.8125 0.8125,4.34375 -0.0312,1.375 -7.75,4.34375 -6.75,3.875 -0.6875,0.3125 -4.1875,-1.3125 -4.5,-0.25 -8.75,2.5 -8.25,1 -2.34375,0.90625 -2.9063,-0.40625 -7.125,-1.625 -8.75,-2.625 -10,-2 -10.375,-0.375 -14.499996,-3.75 -9.25,-0.875 -3.625,-1.625 -6.125,-4.875 -8.75,0.25 6.25,3 6.5,2.875 5.25,2.25 10.5,1.75 4.5,1.5 4.749995,2 10.000001,1.5 6.25,0.375 6.75,2.125 9.125,2.375 2.90625,0.90625 -2.28125,0.59375 -5.75,3 -3.5,0.25 1.5,1.25 6,-1.5 6.375,-2.875 1.625,0.5 6.625,1.375 5.75,0.625 8.5,0 7.375,-1.625 6.5,-2.5 1.875,-0.9375 1.125,1.9375 2.6875,5.40625 -3.96875,-0.28125 -10.875,-1.03125 -5.5625,2.03125 -7.8125,1.28125 -4.03125,1.5 3.28125,1 5.28125,-0.75 4.3125,-1.5 6.0625,0 13.125,0 1.4375,0.21875 0.0625,0.125 2,4 2.5,5 3,9.25 -1.75,7.75 -2.0625,5.25 -0.90625,-0.53125 -11.34375,-7.59375 -11.125,-6.5625 -10.34375,-2.53125 -13.90625,-2.25 -13.125,-3.3125 -8.625,-0.6875 -0.65625,-0.96875 -0.9375,-0.84375 -1.59375,-2.46875 -1.65625,-2.78125 -1.375,-1.90625 -1.1875,-1.84375 -0.75,-0.40625 -1.125,-0.5 -2.90625,-0.65625 -1.84375,-0.5625 -2.281251,-1.25 -1.125,-2.125 -0.687495,-1.84375 -0.28125,0.3125 0.375,1.5 1.281245,2.65625 2.625001,1.6875 3.03125,0.53125 2.9375,0.90625 2.375,3.9375 2.3125,3.84375 1.0625,2.5625 -0.125,0 -12.21875,-2.125 -6.687496,-1.75 -9.71875,-4.03125 0,-0.0937 -0.15625,-3.71875 0.34375,-1.9375 -0.34375,-3.71875 -1.25,-1.59375 -1.25,-1.03125 -0.875,-2.65625 -1.21875,0.34375 0.34375,1.25 3,4.40625 0.34375,3.34375 -1.21875,4.5625 -11.21875,-3.96875 -12.375,-2.03125 -9.59375,-3.78125 -6.8125,-0.5 -0.53125,1 22.25,8.09375 18.375,7.5 21.499996,5.28125 23.75,3.375 17.9375,5.5625 17.6875,7.0625 13.625,13.65625 19.1875,13.625 12.62503,7.0625 16.9687,22.21875 -5.8437,5.3125 -2.25,11.4375 -6.8438,-3.59375 -4.8125,-4.8125 -6.0625,-3.28125 -10.09373,-3.78125 -11.625,0 -10.09375,-0.25 -11.625,-3.28125 -6.8125,-6.3125 -9.84375,-6.3125 -4.03125,-4.8125 -7.84375,-6.5625 -10.09375,-3.78125 -3.46875,-1.90625 0.59375,-2.53125 1.75,-1.5 4.75,-2.75 2.5,-0.25 -1,-1.75 -0.75,0.25 -6.25,3 -2,0 -1.75,-4 -3,-3.5 -4.5,-4.75 -1.75,-3.25 -3.500001,-2.75 -1,0.5 5.750001,6.5 5.25,6.5 2.25,4.25 0.5,3.75 -0.28125,1 -8.75,-4.15625 -5.562496,-4.28125 -7.5625,-2.53125 -7.0625,-1.25 -9.34375,-0.75 -4.3125,-0.28125 -9.34375,-0.5 -10.84375,-1.75 -11,-1.21875 -0.9375,-2.21875 -0.5,-1.25 -1,-0.9375 -1.375,-0.9375 -2.375,-1.0625 -3.1875,-0.53125 -5.125,-0.71875 -5.125,-0.875 -5.84375,-1.4063 -4.9375008,-1.59375 -6.56249996,-0.1875 0,0.875 5.84374996,0.1875 8.8437508,2.46875 7.0625,1.78125 9.375,1.59375 2.28125,1.75 1.1875,2.8125 -2.78125,-0.3125 -9.34375,-2.53125 -4.5625,-0.25 -1.25,1.78125 9.34375,2.03125 8.59375,2 15.5,2.5625 15.03125,2.75 13.375,1.28125 10.125,2.5 10.843745,4.6875 9.093751,6.4375 10.34375,6.03125 8.9375,7.59375 3.21875,4.03125 6.9375,4.25 -5.6875,-0.71875 -9.59375,0 -6.0625,-1.5 -6.5625,-1 -8.84375,-2.28125 -11.374996,-3.28125 -5.8125,-3.78125 -4.53125,-2.03125 -8.09375,-1.25 -16.40625,-0.25 -5.03125,-0.78125 -9.625,1.28125 -13.375,2.53125 -8.59375,0 -2.5,-0.53125 -4.5625,-2 -1.7500004,0.75 4.5312504,2.78125 11.125,1.5 12.375,-2 12.625,-2.53125 14.625,1.25 16.6875,2.28125 6.9375,4.78125 -4.34375,-0.375 -5.125,-0.375 -6.375,1.78125 -9.1875,-0.1875 -6.90625,-0.34375 -5.125,1.21875 -8.8125,3.03125 -6.1875,1.0625 -6.71875,0.53125 -4.59375,-0.375 -3.71875,-0.875 -4.25,-0.53125 -3.375,-0.34375 -0.15625,0.875 5.65625,0.625 4.0625,1.3125 3.28125,0.8125 5.03125,0.15625 6.8125,-0.59375 3.53125,-0.8125 3.625,-0.875 5.125,-1.25 3.1875,-1.15625 2.90625,-1.21875 3.34375,-0.1875 5.0625,0.53125 4.3125,0.0937 3.28125,0 3.625,-0.96875 2.125,-0.625 1.84375,-0.25 3.4375,0.4375 3.46875,0.0937 3.03125,0.0625 16.687496,5.0625 13.375,1.75 16.40625,1.28125 9.09375,4.03125 7,6.21875 -2.90625,2.28125 -2,1.75 -6.25,4 -11,1.75 -7.25,2.5 -7,3 -1.375,1.125 -2.125,-1.625 -3.25,-4.5 -1.5,-3 -1,-3.25 0,-1.75 -1,-0.5 -0.5,2.5 1.5,5.5 4,7.25 1.9375,1.15625 -3.9375,4.84375 -1.75,8.75 -1.5,8.25 1.75,4.75 0.25,3 1.75,-1 -2.25,-5.75 1.75,-13 1.75,-3.5 3.5,-3.75 5.25,-3.5 7.75,-3.5 12,-2 11.25,-4.75 6.4375,-3.21875 0.34375,0.3125 17.4375,0 11.59375,-0.5 7.84375,5.0625 7.56253,14.875 4.4062,7.28125 -1.125,5.09375 -2.2187,7.65625 -3.0625,-3.84375 -5.81253,-4.3125 -1.28125,-0.25 -6.3125,-1 -7.3125,-1.28125 -1.5,0.28125 -2.78125,1.75 -5.0625,4.03125 -7.0625,1.53125 -5.0625,1 -1.75,1.78125 11.09375,-1.28125 9.09375,-4.28125 2.28125,-2.03125 4.28125,-0.25 9.59375,2.28125 4.0625,1.25 3.28128,7.34375 1.875,2.25 -2.375,7.84375 0.5,8.09375 1,9.84375 0.25,12.375 -2.7813,5.28125 1.5313,11.375 0,6.5625 0.5,8.84375 3.2812,5.8125 2.0313,8.59375 -0.5313,9.59375 -1.25,13.125 0.1563,1.78125 -0.094,1.28125 -0.1875,0.0937 -2.7813,3.78125 -1.6875,6.71875 0,1.87502 -2.0625,3.0312 -2.21873,2.6563 -0.34375,3.0625 -4.03125,3.75 -4.03125,3.6562 -5.0625,2.65628 -6.53125,3.3126 -6.6875,1.9687 -3.21875,2.5 -6.25,1.4375 -5.1875,4.9063 -3.84375,4.2812 -1.59375,2.5938 -0.0937,2.4062 -3.84375,2.9375 -3.375,1.7813 -1.8125,1.3437 -0.0625,1.0938 2.5625,-1.875 4.46875,-1.7188 2.59375,-1.7812 0.90625,-0.7188 0.78125,-0.7812 -0.25,-1.8125 1.5,-2.3125 2.15625,-2.6875 2.9375,-1.875 3.03125,-2.0313 3.75,-0.4687 5.5625,-1.0625 -1.96875,2.6875 -1.625,0.875 -2.59375,4.5625 -2.5625,3.5 -1.4375,2.4062 -3.75,2.0313 -2.6875,1.25 -0.1875,0.8125 1.96875,-0.5313 3.3125,-1.7812 1.6875,-0.8125 2.59375,-2.0625 1.96875,-3.4688 1.96875,-2.3125 0.875,-0.7187 0.90625,-1.0625 1.4375,1.875 0.625,-0.8125 0.15625,-0.4375 -0.25,-1.8125 0.8125,-1.7813 0.25,-1.1562 0.375,-0.875 2.03125,-0.094 2.78125,-1.5313 0.4375,-0.3437 0,1.3437 -0.875,2.0313 -2.4375,3.4062 -1.3125,3.3125 -2.5,2.2188 -2.34375,4.375 -0.78125,1.7812 -2.34375,2.5 -3.125,2.5 -2.125,2.4063 -0.375,0.7187 0.28125,1.0625 0.25,1 1.34375,-0.1875 -0.53125,-0.625 -0.1875,-0.625 0.5625,-0.9687 1.25,-0.8125 4,-2.4063 1.15625,-0.4375 3.125,-4.375 2.25,-2.6875 3.90625,-1.9687 3.3125,-3.4688 2.40625,-2.5 3.65625,-2.0625 3.5,-5.4375 1.4375,-2.1562 1.25,-0.2813 1.5,1.3438 1.15625,-0.25 -0.53125,2.125 0.375,1.7187 0,2.5625 -1.71875,3.5938 -1.875,3.5625 -1.59375,4.0937 0.25,1.9688 0.8125,0.7187 0.4375,-0.094 -0.53125,-0.625 -0.0937,-0.9687 0.71875,-2.875 0.90625,-1.25 0.875,-1.3125 1.25,-2.9688 1.34375,-2.6562 1.71875,-1.0938 1.24998,-3.75 0.1563,-2.4062 0.2812,-0.5313 0.8125,-1.0625 2.0313,-0.094 2.5937,0.094 2.0625,-1.5312 5.3438,-2.5938 -0.9688,1.625 -1.7812,1.4063 -3.2188,1.9687 -0.625,3.125 -2.1562,5 -1.6875,3.2188 -0.7188,6.25 0,2.25 -2.0625,2.125 -4.90623,1.6875 -0.625,0.7187 0.625,0.1875 3.65625,-1.1562 1.53128,-0.625 2.3125,-1.1563 1.25,-2.875 0.9062,-2.5 -0.094,-1.25 -0.094,-2.125 1.875,-4.125 1.5313,-2.2187 0.4375,-2.875 0.9687,-1.25 2.0625,-1.875 3.2188,-0.6875 1.4375,-1.625 2.75,-1.9688 0.8125,-2.0312 3.4687,2.3125 1,1.0625 2.9375,1 1.1563,0.4375 0.5312,0.4375 -0.875,2.3125 -1.0625,4.0312 0.062,2.2188 1.8125,0.9062 0,1.0625 -0.094,1.7188 -2.0625,1.875 -0.5312,1.25 0.9687,-0.375 1,-1.0625 0.625,-0.5313 1.25,-1.4375 0.7188,-2.5937 -2.25,-2.2188 0.625,-1.875 1.0625,-2.4062 0.375,-1.875 0,-0.2813 2.8437,0.625 2.875,4.1875 2.2188,2.3438 -1.4375,4.4375 0.4687,2.6875 0.625,2.25 2.4063,2.4062 3.125,1.875 2.9375,2.4063 1.25,2.3125 1.0625,-0.3438 -0.625,-0.9062 -0.6875,-1.3438 -4.6563,-3.9062 -2.1562,-1.625 -1.7813,-1.3438 0.1875,-3.5625 0.7188,-2.5 0.875,-1.5937 0.1875,-2.3438 -0.8125,-1.0625 -1.3125,-2.3125 2.8437,1.0625 2.4063,1.4375 4.6562,3.0313 0.5313,2.9375 1.7812,4.9062 2.6875,3.125 0.7813,1 1.625,2.4063 -0.094,2.3125 0.9687,0 1.4375,0.2812 0.1875,0 1.6875,-0.8125 1.9688,-1.0625 1.25,-0.625 3.4687,0 1.25,1.0625 2.0625,0.6875 0.062,-0.25 -1.625,-0.9375 -0.7187,-0.5625 -0.3125,-0.4062 -1.6563,-0.4063 -2,-0.031 -1.1875,0.062 -1.7187,0.5625 -0.7813,0.3438 -2.25,0.5 -0.5625,0.1562 -0.094,-1 -0.094,-0.625 -0.75,-1.7187 -0.8125,-0.9375 -0.6875,-0.625 -0.4687,-0.8438 -0.094,-1.2812 -0.5,-0.7188 -0.3438,-0.4375 -0.8437,-0.6875 -0.5,-0.5625 -0.7188,-1.9375 -0.5312,-1.75 -0.9375,-1.5625 -0.094,-1.2812 -1.125,-2.1563 -1.4063,-0.5625 -1.5625,-1 2.0313,-0.031 2.5,-0.8437 0.6875,-1.25 1.6875,-0.375 2.2187,-0.6563 1.6563,-0.031 1.0312,1.25 0.1875,1.4063 1.1563,2.25 1.75,1.6562 2.0937,1.9375 1.3438,0.1563 0.75,0.9375 -0.625,1.5 -1.25,1.4062 -0.5938,1.1563 -0.062,0.4375 0.6563,-0.2813 0.4062,-0.6562 0.5,-0.4063 0.4375,-0.3437 0.875,-1.3125 0.4063,-1.1563 0.625,-0.125 1.8437,0.3438 1.5625,0.5312 1.2813,0.7188 0.1875,0.094 1.5625,0.8437 -0.1875,-0.625 -0.75,-0.7812 -0.3131,-0.1564 -1.3437,-0.4063 -1.125,-0.625 -1.7188,-0.6875 -1.8437,-0.5 -0.6563,-0.3125 -1.0312,-0.8125 -1.4688,-0.4375 -0.7187,-0.75 -0.75,-0.7186 -0.7188,-1 -0.4062,-0.7188 0.4375,-0.3125 0.5,0.1875 0.75,0.5313 1.4375,0.4687 1.2812,-0.094 1.3438,0.4063 0.9375,1.0625 0.5312,0.4062 1.625,0.3438 0.094,-0.25 -0.7187,-0.4063 -1.0938,-0.6875 -0.9687,-0.9375 -2.4688,-0.7812 -1.7812,-0.5 -1.0938,-0.5938 -0.4062,-0.625 -0.8125,-1.0625 -0.2813,-0.5312 -0.2187,-0.094 0.5312,0 0.5,-0.094 1.0313,0.5 0.8437,0.8437 1.8438,0.8125 1.5,0.125 2.5625,0.2813 1.7187,0.75 1.875,0.3125 2.4375,0.125 0.875,0.3125 1.6875,1.125 -0.5625,-4.0313 0.125,-4 0.2813,-1.4687 -1.75,-1 -1.7813,-0.9375 -2.9062,-1.6875 -0.625,-2.56258 -1.75,-0.7813 -1.5625,-1 -1.6875,-0.6562 -1.25,0.031 -1.5313,-0.4375 -1.8125,-1.2813 -2.25,-1.25 -2.8125,-3.5312 -1.6875,-1.9688 -3.0312,-1.75 -1.0313,-4.1562 -0.2187,-1.5938 0.031,-3.56247 -0.4688,-2.59375 -0.1562,-11.46875 -0.625,-5.1875 1.5,-5.9375 0.1562,-4.65625 0,-5.1875 1.25,-4.90625 -1.4062,-10.875 1.2812,-9.84375 0,-7.1875 -0.75,-6.6875 0.25,-11.25 1,-6.5625 -1,-2.15625 2.2188,-8.6875 -1.6563,-9.75 -3.2812,-6.0625 1.125,-12.5 1.125,-10.15625 4.4062,-5.625 3,-7.5 4.5,-6.25 3,-4.75 3.25,-2.75 5,-3.25 1.25,-1 8.75,-3.75 0,-9.5 -6.25,5.5 -6.25,3.25 -6,4.5 -6.25,7.75 -5.5,7.25 -3.6562,7.3125 -0.125,-1.40625 3.6562,-9.34375 4.9375,-10.09375 3.5313,-7.96875 1.125,-10.09375 -0.8749,-4.90635 2.4687,-12.34375 8.1875,-2.65625 9.75,-0.75 -0.25,-5 -6,1.75 -6,0 -3,0.25 -1.4375,0.28125 1.1875,-5.78125 3.25,-11.75 5,-8.75 6,-7.5 -1,-33.75 -3.25,6.75 -2.75,10 -3.5,7.5 -2.5,4.75 -4.75,10.25 -3.75,8 -2.25,1.25 -3.5312,-0.125 0.7812,-9.40625 0.75,-13.875 2.5313,-13.65625 2.5312,-8.0625 0.5,-14.0625 -10.2812,-13.3125 -13.7813,0.78125 -9.5625,14.1875 2.0313,14.75 -0.9688,6.40625 -8.1875,-4.84375 -8.3125,-4.40625 -8.3437,-7.375 z m -0.125,16.03125 7.90623,1.90625 8.4063,4.1875 13.875,7 -0.5,6.53125 -1,0.0312 -8.0625,0.25 -11.625,-2.78125 -7.56253,-2.4375 -7.09375,-1.09375 -3.375,-0.21875 -1.4375,-2.90625 -0.75,-2.5 -2.25,-1.75 -1.53125,-1.28125 2.65625,-1.34375 6.6875,-3 z m -28.96875,2.21875 5.5625,1.1875 -3.0625,1.4375 -5.875,0.75 -8.5,0.375 -4.03125,-0.5625 0.65625,-0.1875 7.25,-1.25 z m 21.34375,13.9375 6.53125,0.96875 7.99998,3.28125 7.5313,2.21875 7.6875,1.3125 7.2187,0.25 -0.4062,5.0625 -0.5,9.59375 -0.25,11.875 4.3125,10.84375 2.2187,8.09375 -0.4687,-0.25 -5.0625,-2.53125 -6.8125,-3.53125 -8.0938,-4.5625 -8.5625,-4.03125 -10.03123,-5.78125 0.84375,-2.5 1.25,-3.25 0.25,-2.75 1.25,-2.5 1,-2.75 -0.5,-1.25 -1,-2.25 -0.75,-3.75 -1.25,-3.25 -1.75,-3.5 z"
       id="path3989"
       inkscape:connector-curvature="0"
       sodipodi:nodetypes="ccccccccccccccccccccccccccccccccccccccccccccccccccccccccccccccccccccccccccccccccccccccccccccccccccccccccccccccccccccccccccccccccccccccccccccccccccccccccccccccccccccccccccccccccccccccccccccccccccccccccccccccccccccccccccccccccccccccccccccccccccccccccccccccccccccccccccccccccccccccccccccccccccccccccccccccccccccccccccccccccccccccccccccccccccccccccccccccccccccccccccccccccccccccccccccccccccccccccccccccccccccccccccccccccccccccccccccccccccccccccccccccccccccccccccccccccccccccccccccccccccccccccccccccccccccccccccccccccccccccccccccccccccccccccccccccccccccccccccccccccccccccccccccccccccccccccccccccccccccccccccccccccccccccccccccccccccccccccccccccccccccccccccccccccccccccccccccccccccccccccccccccccccccccccccccccccccccccccccccccccccccccccccccccccccccccccccccccccccccccccccccccccccccccccccccccccccccccccccccccc" />
  </g>
</svg>
