<?xml version="1.0" encoding="UTF-8" standalone="no"?>
<!-- Created with Inkscape (http://www.inkscape.org/) -->

<svg
   xmlns:dc="http://purl.org/dc/elements/1.1/"
   xmlns:cc="http://creativecommons.org/ns#"
   xmlns:rdf="http://www.w3.org/1999/02/22-rdf-syntax-ns#"
   xmlns:svg="http://www.w3.org/2000/svg"
   xmlns="http://www.w3.org/2000/svg"
   xmlns:xlink="http://www.w3.org/1999/xlink"
   xmlns:sodipodi="http://sodipodi.sourceforge.net/DTD/sodipodi-0.dtd"
   xmlns:inkscape="http://www.inkscape.org/namespaces/inkscape"
   width="205"
   height="360"
   id="svg4050"
   version="1.1"
   inkscape:version="0.48.4 r9939"
   sodipodi:docname="tree_left.svg"
   inkscape:export-filename="C:\Users\Charlie\Desktop\tree_left.png"
   inkscape:export-xdpi="90"
   inkscape:export-ydpi="90">
  <defs
     id="defs4052">
    <radialGradient
       inkscape:collect="always"
       xlink:href="#linearGradient3938"
       id="radialGradient4001"
       cx="58.895618"
       cy="890.63928"
       fx="58.895618"
       fy="890.63928"
       r="105.37499"
       gradientTransform="matrix(0.58239641,0.09390595,-0.33122476,2.0542262,326.297,-928.15286)"
       gradientUnits="userSpaceOnUse" />
    <linearGradient
       id="linearGradient3938">
      <stop
         style="stop-color:#595944;stop-opacity:1;"
         offset="0"
         id="stop3940" />
      <stop
         style="stop-color:#000000;stop-opacity:1;"
         offset="1"
         id="stop3942" />
    </linearGradient>
    <radialGradient
       inkscape:collect="always"
       xlink:href="#linearGradient3938"
       id="radialGradient6044"
       cx="76.37043"
       cy="908.21716"
       fx="76.37043"
       fy="908.21716"
       r="105.37502"
       gradientTransform="matrix(0.99081962,0.1351905,-0.20610463,1.5105537,187.88887,-442.78737)"
       gradientUnits="userSpaceOnUse" />
  </defs>
  <sodipodi:namedview
     id="base"
     pagecolor="#ffffff"
     bordercolor="#666666"
     borderopacity="1.0"
     inkscape:pageopacity="0.0"
     inkscape:pageshadow="2"
     inkscape:zoom="1.979899"
     inkscape:cx="3.9057755"
     inkscape:cy="168.51802"
     inkscape:document-units="px"
     inkscape:current-layer="layer1"
     showgrid="false"
     showguides="true"
     inkscape:guide-bbox="true"
     inkscape:window-width="1920"
     inkscape:window-height="1017"
     inkscape:window-x="-8"
     inkscape:window-y="-8"
     inkscape:window-maximized="1" />
  <metadata
     id="metadata4055">
    <rdf:RDF>
      <cc:Work
         rdf:about="">
        <dc:format>image/svg+xml</dc:format>
        <dc:type
           rdf:resource="http://purl.org/dc/dcmitype/StillImage" />
        <dc:title></dc:title>
      </cc:Work>
    </rdf:RDF>
  </metadata>
  <g
     inkscape:label="Layer 1"
     inkscape:groupmode="layer"
     id="layer1"
     transform="translate(0,-692.36218)">
    <path
       style="fill:url(#radialGradient6044);fill-opacity:1;stroke:none;display:inline"
       d="m 86.484849,687.33942 -5.3125,1.28125 -1.40625,5.5625 -2.90625,4.78125 -4.28125,4.3125 -8.34375,4.65625 -4.78125,1.65625 0.625,-1.53125 3.28125,-7.4375 2.53125,-4.5625 2.53125,-7.0625 -4.8125,-0.5 -3.40625,7.3125 -3.28125,5.9375 -2.90625,5.5625 -4.03125,8.34375 -1.15625,5.28125 -3.03125,8.96875 -2.75,1.78125 -0.40625,-2.03125 0.40625,-6.0625 1.375,-7.1875 1.5,-6.5625 1.65625,-6.0625 1.90625,-6.6875 3.78125,-7.09375 -6.4375,-0.25 -0.25,3.53125 -1.40625,6.84375 -4.15625,9.71875 -3.40625,7.1875 -2.40625,-3.90625 -1.78125,-4.8125 -1.625,-6.9375 -0.25,-6.0625 0.75,-5.8125 -3.65625,-1 -0.25,2.78125 0.5,10.09375 -0.125,3.40625 -2.78125,-3.03125 -3.031249,-2.53125 -3.65625,-11.59375 -5.8125,3.90625 3.28125,6.6875 1.125,2.28125 -6.6875,-3.28125 -3.6562506,-1.15625 -10.5937502,-2.375 -0.25,1.625 5.28125,2.40625 7.8437502,1 5.5625006,3.65625 6.9375,5.0625 3.031249,4.9375 -3.656249,-1.78125 -3.65625,-2.53125 -7.34375,-1.625 -5.1875006,-1.78125 -5.90625024,-2.78125 -0.28125,6.0625 1.90625004,0.625 4.4375002,1.03125 3.15625,0.875 6.0312506,1 8.96875,5.8125 7.218749,4.15625 2.125,7.71875 0.90625,9.34375 1.15625,7.96875 -1.0625,0.125 -1.5625,-3.28125 -3.15625,-6.5625 -4.28125,-6.96875 -5.937499,-6.0625 -6.8125,-3.90625 -6.8125006,-4.53125 -6.8437502,-3.9375 0,3.15625 3.03125,2.28125 4.6875002,2.78125 7.9375006,3.78125 5.9375,8.46875 3.03125,9.71875 2.531249,6.8125 4.3125,10.1875 -0.3125,3.375 -0.84375,-0.53125 -4.531249,-2.28125 -7.09375,-4.03125 -8.0625006,-7.96875 -4.1875,-5.8125 -5.78125024,-9.59375 1,9.34375 4.15625004,5.5625 4.4375002,4.65625 5.8125006,6.0625 7.8125,4.0625 6.343749,4.0625 -1.40625,4.25 0.125,3.65625 -1.15625,8.96875 -0.25,7.84375 -0.34375,2.5625 -3.312499,-5.34375 -3.78125,-4.6875 -4.6875,-6.9375 -9.3437506,-7.6875 -6.4375002,-3.40625 1.03124996,7.9375 7.93750024,5.3125 3.1562506,4.78125 3.03125,5.9375 3.03125,7.96875 2.90625,4.78125 3.15625,4.9375 1.25,4.9375 1.687499,5.625 -0.65625,1.6875 0.28125,1.6875 -1.812499,-2.0625 -3.78125,-2.53125 -6.3125,-9.59375 -5.0625006,-5.4375 -3.40625,-5.03125 -8.3125002,-5.3125 3.78124996,18.5625 4.65625024,3.03125 4.0625,2.53125 5.9375006,4.78125 4.40625,6.6875 4.28125,10.375 1.968749,5.53125 -0.3125,4.8125 0.75,8.71875 0.0312,0.0937 -1.28125,-1.375 -3.281249,-5.40625 -3.40625,-5.0625 -3.5625,-5.3125 -4.03125,-3.90625 -6.6875008,-3.53125 -6.9375,-1.53125 -5.1875,-2.5 0.75,10.09375 8.84375,0.5 4.1875002,2.53125 4.6562496,2.125 4.156251,6.46875 4.6875,4.78125 3.15625,7.1875 3.031249,8.34375 1.375,8.71875 1.03125,3.90625 0.34375,3.625 -0.0937,2.1875 -0.625,3.28125 -0.90625,5.1875 -1,6.0625 1.125,8.3125 -3.156249,7.34375 1.406249,4.40625 1.375,3.65625 0.5,3.40625 -1.75,5.0625 0.25,3.40625 1.125,6.5625 0.90625,4.5625 0.5,7.5625 1,2.78125 -1.78125,3.65625 -1.625,3.28125 -2.531249,2.15625 -0.5,4.15625 -0.125,2.03125 -0.75,2.90625 -2.90625,2.90625 -1.65625,4.28125 -3.90625,2.78125 -2.28125,2.53125 -2.4062506,1.75 -1.75,1.40625 0.125,1.625 -3.2812502,0 -4.6875,0.15625 -0.125,19.96863 4.0625,-0.8125 4.6562502,-3.25 3.2812506,-0.5313 1,-1.25 3.5625,-0.125 4.40625,-1.9061 2.40625,-2.125 2.65625,-0.5 2.906249,0.75 3.65625,-1.4063 1.875,0.7813 2.65625,-1.5313 2.03125,1.6563 2.90625,0.625 0.375,1.875 -2.03125,2.5311 -0.375,3.2813 0.375,3.4062 -1.375,2.5313 1.5,1.0312 1.15625,-2.4062 0.5,-4.0625 0.125,-1.5 2.40625,-1.125 2.90625,-1.1563 1.75,2.2813 1.40625,1.25 -0.90625,1.7812 -3.15625,1.5 -1.375,1.2813 2.40625,0.375 2.25,-1.6563 1.65625,-1.25 2.53125,-0.375 -0.25,-1.6562 -2.90625,-3.5313 -1.03125,-1.6249 0.90625,-2.6562 1.625,-1.125 0.75,0.5 0.28125,-1.4063 1.25,0.75 1.25,2.5313 1.53125,1.7812 1.125,1.1249 -0.25,2.0313 -0.25,2.2812 0.125,1.5 2.15625,1.5313 1.75,1.375 1.28125,1.25 0.75,-0.5 -1,-1.875 -3.03125,-2.2813 -0.65625,-0.125 0.53125,-2.2812 1,-1.625 0.75,-1.9063 -1.375,-2.1561 0,-1.375 -0.5,-2.0313 1.75,-0.25 1.28125,1 2.25,0.5313 2.53125,0.125 2.03125,0.125 2,2 0.90625,2.2811 2.78125,1.4063 2.90625,0 2,0.25 1.28125,1.625 1.125,1.4062 1.375,0.25 0.90625,0.5 2.125,-0.5 1.40625,-0.5 0.75,0.375 1.125,1.375 1.65625,1 1.25,0.125 -0.375,-1.125 -1,-0.5 -1.28125,-1.125 -1,-1.2812 -2.28125,-0.625 -1.5,0.625 -0.625,0 -0.90625,-1.375 -1.125,-0.7813 -1.90625,-1 -2,-0.7499 -1.65625,-0.375 -1.375,-2.0312 -0.625,-1.875 -0.375,-1.1563 0.625,-1.25 2.78125,0 2.90625,0.625 2.125,1.375 2.28125,1.4063 3.53125,1.75 2.90625,-0.25 2.15625,0 0.5,-0.5 2.40625,1.4062 2.125,2.6249 1.906251,2.2813 1.65625,1.2812 1.125,2.5 1.25,2.9063 1.53125,2.2812 1.74999,0.375 0.53125,1.5313 0.625,2.6562 1.375,0.5 1.40625,0.75 -0.78125,-1.5312 -1.125,-0.75 -0.5,-2.2813 -0.25,-2.125 -2.03125,-0.75 -1.37499,-1.9062 -1.40625,-4.4063 -1.375,-2.1562 -1.65625,-4.4374 2.40625,0.6562 1.375,-0.25 0.78125,1.125 2.12499,3.6562 2.15625,2.4062 1.90625,0.75 1.25,0.25 -0.25,-0.875 -1.25,-0.625 -1.40625,-1.2812 0.25,-1.375 -0.75,-1.6563 -1.90625,-1.9999 -0.625,-0.7812 3.03125,0.125 1.78125,0.9062 1.5,0.625 1.90624,4.0312 2.15625,1.5312 1.625,3.5313 5.8125,1.5 4.53125,2.0312 -0.25,-1 -2.78125,-1.4062 -3.03125,-1.5 -2.625,-2.2813 -1.03125,-3.0312 -2,-1.9063 -1.40625,-2.7499 -2.78124,-2.4062 -2.25,-1.7813 -5.1875,-1.375 -1.28124,-0.9062 -4.40625,0.2812 -4.656251,-2.65617 -1.90625,-1.78126 -1.53125,-0.875 -2.25,-0.25 -2.53125,-2.15625 -2.90625,-3.78125 -1.90625,-0.125 -0.875,-1.53125 -1.25,-1.75 -1.78125,0 -2.40625,-2.40625 -2.125,-1.90625 -1.15625,-2.90625 0,-1.375 -2.125,-2.65625 -2.03125,-5.8125 -0.375,-3.28125 0.875,-2.53125 -0.875,-2.375 -0.125,-3.15625 0,-2.03125 -3.40625,-4.9375 -1.28125,-6.5625 -3.03125,-5.5625 1.15625,-6.1875 -1.15625,-5.40625 0,-3.65625 0.78125,-3.28125 0,-5.1875 -0.78125,-3.03125 1.15625,-2.03125 -0.375,-7.1875 -0.53125,-6.3125 1.15625,-5.0625 -0.25,-9.46875 -0.375,-5.03125 0.375,-2.90625 -0.0625,-0.46875 1.4375,-1.0625 1.65625,-3.78125 2.78125,-2.40625 3.40625,-3.78125 3.90625,-6.0625 0.1875,-0.4375 7.65625,-2.53125 11.59375,-5.875 10.187501,-3.75 3.74999,-0.71875 5.34375,4.8125 3.74999,6.0625 6.09375,8.03125 4.09375,3.40625 4.65625,5 5.15625,3.21875 0.71875,-1.78125 -4.8125,-3.59375 -7.15625,-6.25 -3.90625,-5.875 -3.21875,-7.6875 -5.18749,-5 -0.53125,-1.78125 5.34374,-3.5625 6.4375,-3.03125 3.40625,-8.21875 3.375,-7.875 5.1875,-0.34375 3.375,3.03125 3.75,4.28125 7.6875,5.71875 6.96875,3.9375 4.65625,4.46875 11.25,3.375 10.15625,2.5 8.9375,1.0625 8.75,-0.875 0,-0.90625 -4.8125,0 -7.34375,-0.875 -10.6875,-1.96875 -6.25,-1.78125 -6.8125,-3.03125 3.21875,-1.8125 -0.53125,-0.53125 -1.96875,0.90625 -2.3125,0.4375 -1.78125,-0.4375 -2.875,-1.96875 -2.03125,-2.3125 -4.28125,-1.71875 -2.59375,-2.03125 -2.96875,-2.6875 -3.46875,-3.46875 -1.4375,-2.6875 -2.21875,-2.15625 -2.9375,-1.6875 -2.15625,-1.34375 -2.0625,-0.875 -0.78125,0.0625 1.40625,-0.65625 3.46875,-2.21875 0.84375,0.1875 4.15625,3.03125 5.9375,5.4375 1.75,4.65625 3.15625,1.65625 8.09375,2.40625 5.1875,1.875 6.9375,2.53125 3.90625,0.875 2.40625,1.15625 7.9375,1.375 3.9375,1.53125 3.28125,-0.25 -1.53125,-1.15625 -3.90625,-0.75 -4.40625,-1.90625 -4.5625,-0.625 -2.65625,-1.625 3.40625,-0.625 2.65625,-1.03125 4.3125,-0.625 3.78125,-0.25 -0.5,-1.25 -4.4375,0.375 -5.40625,1.25 -7.34375,1.90625 -4.65625,-1.78125 -4.4375,-2.53125 -10.96875,-3.28125 -2.53125,-2.25 -2.65625,-5.3125 -3.03125,-2.78125 -4.9375,-4.59375 0.90625,-0.59375 2.65625,-1.375 3.53125,-1.78125 5.5625,0.25 5.28125,1.03125 2.78125,0.75 5.8125,2.40625 4.28125,2 3.5625,2.53125 2.625,1.40625 4.1875,2.25 4.40625,1.53125 0.25,-0.75 -3.65625,-1.03125 -4.9375,-3.28125 -3.78125,-2.28125 -3.65625,-2 -4.03125,-2.15625 -7.34375,-2.65625 -4.53125,-1.5 -3.28125,-0.78125 -2.65625,-0.25 -4.15625,1.15625 2.375,-1.53125 2.53125,-3.90625 2.90625,-3.65625 1.40625,-2.78125 2.25,-4.03125 2.15625,-5.3125 2.03125,-4.5625 2.65625,-5.53125 1.75,-5.1875 -1,-1.25 -2.03125,3.90625 -2.65625,6.9375 -3.03125,6.5625 -3.28125,5.0625 -3.78125,5.6875 -3.15625,4.28125 -3.78125,3.53125 0.125,-3.53125 -0.25,-3.65625 -0.625,-2.78125 -0.125,-3.15625 0.875,-2.03125 1,-3.28125 3.78125,-6.5625 -0.625,-1.625 -1,0.5 -3.78125,6.9375 -2.28125,5.5625 -1.28125,-1.53125 -2.625,-3.03125 -0.90625,-1.625 -1.25,-3.15625 -1.25,1 0.75,1.40625 3.40625,5.28125 3.28125,3.8125 0.875,2.625 0.375,4.6875 -2.125,6.8125 -1.6875,1.21875 -7.28125,-0.46875 -4.8125,0.25 -4.90625,0.78125 -5.3125,0.3125 2.90625,-4.25 3.03125,-6.6875 1.5,-2.78125 -0.75,-3.65625 0.75,-3.65625 -0.875,-4.8125 -0.25,-6.0625 -1.125,-6.1875 0.25,-3.90625 0.375,-6.0625 0.375,-5.28125 3.90625,-6.71875 2.65625,-2.5 0.84375,-1.03125 0.90625,-0.15625 5.71875,1.25 8.9375,2.78125 5.25,3.75 3.75,3.75 4.75,3.21875 2.40625,1.59375 3.75,1.875 4.46875,2.6875 1.3125,0.875 0.5625,-0.6875 -2.15625,-1.25 -3.40625,-2.0625 -4.90625,-2.59375 -2.125,-2.59375 -2.0625,-3.125 -1.59375,-1.96875 -1,-0.71875 13.21875,-5.875 3.65625,-2.59375 4.46875,-2.84375 1.15625,-2.34375 0,-4.71875 -0.96875,-3.84375 -0.71875,-0.1875 0,1.09375 0.71875,2.3125 -0.28125,1.78125 -0.53125,2.5 -3.84375,2.9375 -6.25,2.96875 -4.46875,2.3125 -5.625,2.0625 -2.9375,0.78125 -4.375,-0.875 1.6875,-4.375 2.40625,-3.75 2.34375,-3.75 0.96875,-1.34375 1.34375,-1 3.84375,-4.1875 2.3125,-1.34375 2.59375,-2.40625 0.0937,-0.4375 -2.40625,1.875 -2.40625,1.6875 -1.53125,1.0625 -1.59375,1.875 -1,0.625 -1.0625,-6.59375 -1.4375,-4.1875 -0.34375,0 0.25,2.21875 0.71875,2.25 0.53125,3.8125 0.1875,2.34375 -0.1875,1.15625 -1.5,2.40625 -1.625,1.96875 -1.5,1.875 -1.875,2.125 -1.25,2.5 -2.0625,2.4375 -2.6875,-1.1875 -3.375,-1.78125 -2.25,-0.625 -0.71875,-0.4375 3.59375,-4.5625 2.21875,-4.8125 2.6875,-4.28125 2.75,-4.46875 2.6875,-2.5 3.125,-2.0625 2.59375,-1.34375 3.65625,-0.4375 3.125,0 0.28125,-0.8125 -2.25,0.0937 -2.75,0.0937 -2.59375,-0.0937 -1.15625,0.28125 4.1875,-3.21875 2.15625,-3.40625 1.25,-3.5625 0,-3.21875 -0.8125,-0.625 -0.1875,2.6875 -0.8125,2.84375 -1.0625,2.0625 -1.78125,2.25 -2.21875,1.5 -3.0625,3.125 -3.46875,2.5 -2.0625,3.5 -1.25,1.5 -1.0625,1.25 -2.0625,3.03125 -1.96875,3.125 -1.78125,2.0625 -1.5,2.59375 -2.15625,2.15625 1.40625,-2.34375 2.28125,-7.21875 1,-5.53125 1.65625,-3.5625 1.625,-3.78125 -0.75,-1.25 -2.78125,5.03125 -2.40625,8.84375 -2.875,8.09375 -3.4375,4.0625 -0.96875,0.40625 -3.3125,0.625 -3.84375,0.53125 -2.9375,0.1875 -1.78125,0.1875 0.78125,-3.59375 1.625,-3.84375 0.96875,-3.90625 1.53125,-4.28125 0.625,-3.75 3.21875,-3.40625 2.5,-2.21875 -0.625,-0.375 -1.875,1.4375 -1.4375,1.5 -1.0625,1.34375 -0.90625,0.90625 -1.34375,-1.4375 -0.4375,0.90625 0.53125,0.4375 0,1.6875 -1.15625,3.59375 -0.90625,3.1875 -1.0625,2.875 -2.59375,-2.15625 -1.43749,-2.125 -0.625,-3.03125 0.28125,-3.9375 1.25,-5.53125 -0.1875,-1.25 -0.625,-0.28125 0.0937,2.15625 -0.34375,1.6875 -0.71875,2.40625 -0.53125,2.25 -0.46875,1.9375 -1.59375,-1.875 -2.15625,-1.9375 -1.9375,-1.71875 -1.21874,-1.28125 1.46874,-1.9375 2.28125,-2.40625 2.90625,-2.15625 3.03125,-2.40625 3.78124,-3.78125 1.5,-2.53125 1.65625,-3.15625 1.875,-4.53125 2.53125,-3.03125 -2.65625,0.875 -2.90625,5.9375 -0.75,1.375 -2.65625,4.3125 -5.15624,4.78125 -4.0625,2.65625 -4.18749,4.59375 -0.84375,-0.875 -2.500001,-3.3125 -1.875,-1.40625 -0.4375,0.25 1.25,1.4375 1.875001,2.40625 1.53125,2.59375 -0.34375,0.375 -7.593751,0.375 -4.09375,0.1875 0.1875,-2.4375 0,-3.8125 0.375,-4.03125 0.375,-4.9375 1.15625,-4.78125 1.5,-3.53125 0.625,-1.65625 -2.90625,0.25 -0.125,2.15625 -1.5,5.1875 -1.53125,3.78125 -1.25,6.3125 0.375,3.78125 -0.4375,3.78125 -0.0625,0 -3.03125,0.78125 -4.4375,0.875 -3.28125,3.90625 -2.78125,2.03125 -1.25,2.28125 -2.40625,4.15625 -0.75,-3.65625 -3.65625,-2.65625 -2.40625,-1.28125 -1.90625,-1.25 -0.5,1.25 3.65625,2.28125 3.8125,4.1875 1,5.53125 -3.28125,8.21875 -4.15625,7.3125 -4.4375,6.3125 -2.28125,4.5625 -4.40625,8.71875 -3.40625,5.53125 -1.75,2.90625 0.75,-3.40625 1.375,-8.3125 3.15625,-7.96875 0.125,-5.3125 1.15625,-5.15625 0.125,-1.53125 0,-3.28125 -0.15625,0.0312 0.0625,-0.15625 0.40625,-6.4375 1.125,-8.34375 1,-5.0625 0.625,-3.40625 0.78125,-2.375 1.375,-2.90625 2.28125,-1.40625 1.375,-1 2.90625,-1.40625 6.3125,-2.125 2.78125,-2.03125 3.03125,-3.65625 2.15625,-2.28125 2.90625,-3.28125 2.65625,-3.65625 2.375,-3.28125 0.40625,-4.3125 z m 17.156251,30.65625 1.75,1.875 1.09374,1.15625 1.875,1.8125 1.40625,2.5 1.53125,2.21875 0.96875,1.96875 0.90625,1.4375 1.25,2.03125 0.0937,2.34375 -0.53125,1.25 -1.09375,2.3125 -1.40625,1.96875 -2.4375,2.3125 -3.125,0.8125 -3.87499,1.09375 -1.125,-2.28125 -1.000001,-2.40625 0.250001,-4.0625 0.125,-2 -0.375001,-1.65625 -1.78125,-2.90625 -2.375,-3.78125 -1.03125,-1.25 -0.375,1 1.40625,2.15625 2.90625,6.5625 -0.15625,7.8125 0.59375,4.28125 -1.75,0.90625 -3.03125,1 -3.125,0 -5.625,1.78125 -2.84375,1.25 -3.5,2.75 -2.0625,1.4375 -1.78125,2.3125 -1.875,1.78125 -4.375,3.3125 -4.28125,4.8125 -3.53125,3.625 0.0937,-1.84375 0.75,-3.53125 0.625,-2.40625 1.25,-3.15625 1.53125,-2.65625 2.53125,-3.40625 0.875,-1.75 1.78125,-4.3125 1.375,-5.40625 2.40625,-3.15625 2.90625,-2.03125 2.65625,-2.28125 3.53125,-2.40625 2,-1.125 2.53125,-2.53125 0.125,-2.78125 0.75,-4.15625 0.59375,-2.34375 0.4375,-0.0625 2.40625,0 4.15625,-0.375 4.156251,-0.125 2.40625,-1.125 0.4375,-0.5625 z m -16.906251,2.65625 -0.1875,1.6875 0,1.90625 -1.40625,3.40625 -1.75,1.375 -1.65625,1 -3.40625,2.03125 -3.78125,2.40625 1,-1.78125 1.40625,-2.375 2,-4.3125 1.90625,-1.625 3.53125,-2.40625 2.03125,-1.28125 0.3125,-0.0312 z m 38.749981,21.90625 -2.59375,2.75 -3.03125,5.8125 -0.625,5.0625 -2.40625,12 1.40625,10.71875 0.5,8.09375 -3.03125,6.5625 -3.15624,7.8125 -1.78125,3 -2.875,-0.96875 -4.93749,-0.625 -9.218751,-0.125 -3.65625,-0.25 -6.8125,0.75 -6.96875,2.65625 -5.15625,3.78125 -7.59375,8.46875 -5.9375,6.1875 -5.15625,6.3125 -2.03125,0.875 -2.9375,3.53125 -0.46875,-3.28125 -1.15625,-6.84375 2.84375,-3.71875 3.03125,-7.125 -0.875,-12.34375 6.40625,-9.28125 7.6875,-9.28125 4.28125,-5.53125 5.53125,-7.5 4.65625,-7.3125 7.125,-5.90625 7.5,-3.375 13.749991,-3.75 8.93749,-4.125 6.78125,-2.6875 1.96875,-0.34375 z m -1.3125,65.53125 8.0625,0.125 0.375,0.125 -1.875,1.375 -2.15625,0.125 -1.625,1.15625 -5.6875,0.625 -2.03125,-0.375 -2,1 -4.43749,0 1.28125,-3.28125 6.03124,-0.625 4.0625,-0.25 z m -31.562481,0.875 6.0625,1 6.312501,-0.125 2.71874,-0.25 -2.71874,4.5625 -8.843751,0.875 -6.1875,3.65625 -7.09375,4.40625 -7.9375,7.84375 -3.90625,5.6875 -8.34375,9.84375 -4.6875,6.4375 -2.75,3.75 -1.09375,-2.8125 2.71875,-3.59375 2.78125,-4.03125 5.4375,-6.0625 2.53125,-3.65625 2,-5.5625 2.40625,-4.5625 2.65625,-4.40625 2.40625,-1.625 1.75,-3.1875 4.03125,-5.65625 5.6875,-2.28125 4.0625,-0.25 z m 33.843731,6.46875 -0.59375,1.0625 -1.1875,2.21875 -1.875,3.21875 -2.5,4.1875 -2.125,3.125 -3.65624,3.65625 -5.46875,1.8125 -3.90624,1.5 -4.46875,2.3125 -6.250001,1 -3.21875,0 -2.6875,1.78125 -3.75,1.6875 -1.96875,0.46875 -1.3125,0.125 4.28125,-6.34375 1.15625,-3.28125 3.78125,-3.78125 4.65625,-3.53125 2.40625,-1.65625 4.562501,-2.53125 4.15624,-0.875 4.5625,-1.25 7.43749,-2.03125 6.3125,-2.40625 1.65625,-0.46875 z"
       id="path3897"
       inkscape:connector-curvature="0" />
  </g>
</svg>
