<?xml version="1.0" encoding="UTF-8" standalone="no"?>
<!-- Created with Inkscape (http://www.inkscape.org/) -->

<svg
   xmlns:dc="http://purl.org/dc/elements/1.1/"
   xmlns:cc="http://creativecommons.org/ns#"
   xmlns:rdf="http://www.w3.org/1999/02/22-rdf-syntax-ns#"
   xmlns:svg="http://www.w3.org/2000/svg"
   xmlns="http://www.w3.org/2000/svg"
   xmlns:xlink="http://www.w3.org/1999/xlink"
   xmlns:sodipodi="http://sodipodi.sourceforge.net/DTD/sodipodi-0.dtd"
   xmlns:inkscape="http://www.inkscape.org/namespaces/inkscape"
   id="svg3476"
   viewBox="0 0 1000 1000"
   version="1.1"
   inkscape:version="0.48.4 r9939"
   width="100%"
   height="100%"
   sodipodi:docname="face2.svg">
  <sodipodi:namedview
     pagecolor="#ffffff"
     bordercolor="#666666"
     borderopacity="1"
     objecttolerance="10"
     gridtolerance="10"
     guidetolerance="10"
     inkscape:pageopacity="0"
     inkscape:pageshadow="2"
     inkscape:window-width="1920"
     inkscape:window-height="1017"
     id="namedview3168"
     showgrid="false"
     inkscape:zoom="0.6675088"
     inkscape:cx="487.90294"
     inkscape:cy="508.14318"
     inkscape:window-x="-8"
     inkscape:window-y="-8"
     inkscape:window-maximized="1"
     inkscape:current-layer="svg3476" />
  <title
     id="title4674">Jack O' Lantern: Randy</title>
  <defs
     id="defs3478">
    <linearGradient
       id="linearGradient4804-2"
       y2="273.14"
       gradientUnits="userSpaceOnUse"
       x2="617.36"
       y1="820.45"
       x1="485.93">
      <stop
         id="stop4800-6"
         style="stop-color:#581100;stop-opacity:.81356"
         offset="0" />
      <stop
         id="stop4802-1"
         style="stop-color:#d92c00;stop-opacity:.33051"
         offset="1" />
    </linearGradient>
    <linearGradient
       id="linearGradient4634-3"
       y2="286.09"
       gradientUnits="userSpaceOnUse"
       x2="704.56"
       y1="824.17"
       x1="622.63">
      <stop
         id="stop4630-1"
         style="stop-color:#b58b00"
         offset="0" />
      <stop
         id="stop4632-5"
         style="stop-color:#e4af00"
         offset="1" />
    </linearGradient>
    <filter
       id="filter4334-9"
       height="1.6257"
       width="1.0815"
       color-interpolation-filters="sRGB"
       y="-.31285"
       x="-.040739">
      <feGaussianBlur
         id="feGaussianBlur4336-9"
         stdDeviation="9.9696019" />
    </filter>
    <linearGradient
       id="linearGradient4475-1"
       y2="839.46"
       gradientUnits="userSpaceOnUse"
       x2="825.91"
       gradientTransform="translate(0 21.107)"
       y1="400.43"
       x1="891.92">
      <stop
         id="stop4582-9"
         style="stop-color:#ffe627"
         offset="0" />
      <stop
         id="stop4584-1"
         style="stop-color:#ffc200"
         offset=".48058" />
      <stop
         id="stop4586-0"
         style="stop-color:#f4ac00"
         offset=".72481" />
      <stop
         id="stop4588-7"
         style="stop-color:#d78b00"
         offset="1" />
    </linearGradient>
    <linearGradient
       id="linearGradient4473-5"
       y2="781.62"
       gradientUnits="userSpaceOnUse"
       x2="148.84"
       gradientTransform="translate(0 73.469)"
       y1="231.55"
       x1="181.75">
      <stop
         id="stop4558-7"
         style="stop-color:#ffdc10"
         offset="0" />
      <stop
         id="stop4560-0"
         style="stop-color:#f4b908"
         offset=".36213" />
      <stop
         id="stop4562-4"
         style="stop-color:#eea704"
         offset=".75" />
      <stop
         id="stop4576-8"
         style="stop-color:#da9302"
         offset="1" />
    </linearGradient>
    <linearGradient
       id="linearGradient4450-0"
       y2="888.02"
       xlink:href="#linearGradient4536-4"
       gradientUnits="userSpaceOnUse"
       x2="670.03"
       gradientTransform="translate(0 73.469)"
       y1="314.6"
       x1="756.42" />
    <linearGradient
       id="linearGradient4536-4">
      <stop
         id="stop4538-2"
         style="stop-color:#ffe627"
         offset="0" />
      <stop
         id="stop4542-9"
         style="stop-color:#ffc200"
         offset=".44962" />
      <stop
         id="stop4578-6"
         style="stop-color:#f4ac00"
         offset=".72481" />
      <stop
         id="stop4540-1"
         style="stop-color:#d78b00"
         offset="1" />
    </linearGradient>
    <filter
       id="filter4518-0"
       color-interpolation-filters="sRGB">
      <feGaussianBlur
         id="feGaussianBlur4520-4"
         stdDeviation="1.1877312" />
    </filter>
    <linearGradient
       id="linearGradient4463-2"
       y2="839.03"
       gradientUnits="userSpaceOnUse"
       x2="288.56"
       gradientTransform="translate(0 73.469)"
       y1="267.55"
       x1="301.8">
      <stop
         id="stop4568-2"
         style="stop-color:#ffdc10"
         offset="0" />
      <stop
         id="stop4570-0"
         style="stop-color:#f4b908"
         offset=".39532" />
      <stop
         id="stop4572-5"
         style="stop-color:#eea704"
         offset=".75" />
      <stop
         id="stop4574-5"
         style="stop-color:#c68000"
         offset="1" />
    </linearGradient>
    <filter
       id="filter4530-2"
       color-interpolation-filters="sRGB">
      <feGaussianBlur
         id="feGaussianBlur4532-9"
         stdDeviation="2.4366233" />
    </filter>
    <linearGradient
       id="linearGradient4534-0"
       y2="864.08"
       xlink:href="#linearGradient4536-4"
       gradientUnits="userSpaceOnUse"
       x2="463.35"
       gradientTransform="translate(0 73.469)"
       y1="337.86"
       x1="595.12" />
    <filter
       id="filter4510-2"
       color-interpolation-filters="sRGB">
      <feGaussianBlur
         id="feGaussianBlur4512-8"
         stdDeviation="5.0338148" />
    </filter>
    <linearGradient
       id="linearGradient4605-3"
       y2="135.3"
       xlink:href="#linearGradient4310-8"
       gradientUnits="userSpaceOnUse"
       x2="519.98"
       gradientTransform="translate(0 21.107)"
       y1="150.79"
       x1="450.79" />
    <linearGradient
       id="linearGradient4310-8">
      <stop
         id="stop4312-0"
         style="stop-color:#398c24"
         offset="0" />
      <stop
         id="stop4314-4"
         style="stop-color:#63c44b"
         offset="1" />
    </linearGradient>
    <linearGradient
       id="linearGradient4603-0"
       y2="87.518"
       xlink:href="#linearGradient4310-8"
       gradientUnits="userSpaceOnUse"
       x2="479.89"
       y1="250.69"
       x1="438.74" />
    <linearGradient
       id="linearGradient3212"
       y2="39.797"
       gradientUnits="userSpaceOnUse"
       x2="540.25"
       y1="39.797"
       x1="490.22">
      <stop
         id="stop4622-9"
         style="stop-color:#cfe96d"
         offset="0" />
      <stop
         id="stop4624-6"
         style="stop-color:#dfff57"
         offset="1" />
    </linearGradient>
    <linearGradient
       id="linearGradient4713-9-9">
      <stop
         id="stop4715-6-2"
         style="stop-color:#f7ff70"
         offset="0" />
      <stop
         id="stop4717-0-5"
         style="stop-color:#ffe900"
         offset="1" />
    </linearGradient>
    <radialGradient
       id="radialGradient4231"
       xlink:href="#linearGradient4713-9-9"
       gradientUnits="userSpaceOnUse"
       cy="695.78"
       cx="490.56"
       gradientTransform="matrix(.99998 .0060738 -.017025 2.803 38.402 -1266.1)"
       r="306.99" />
    <radialGradient
       id="radialGradient4353"
       xlink:href="#linearGradient4713-9-9"
       gradientUnits="userSpaceOnUse"
       cy="724.2"
       cx="530.22"
       gradientTransform="matrix(6.5394,-1.09,1.2778,7.6664,-3835.3,-4430.4)"
       r="59.194" />
  </defs>
  <g
     id="layer4"
     style="display:none">
    <path
       id="path4211"
       style="fill:#ffd100"
       d="m812.54 425.91c5.4736-56.368-26.548-149.33-79.643-154.31-53.095-4.9777-116.15 82.961-112.83 124.44 3.3184 41.481 69.687 58.073 69.687 58.073s-31.525-39.821-14.933-71.347c16.592-31.525 50.898-24.137 66.369-9.9554 19.911 18.251 34.111 62.581 21.57 82.961-13.274 21.57-33.184 18.251-33.184 18.251 55.015 19.114 78.165 1.2768 82.961-48.118z" />
    <path
       id="path4209"
       style="fill:#ffd100"
       d="m200.77 460.75c-5.4736-56.368 26.548-149.33 79.643-154.31 53.095-4.9777 116.15 82.961 112.83 124.44-3.3184 41.481-48.118 58.073-48.118 58.073s16.592-26.548 0-58.073-50.898-24.137-66.369-9.9554c-19.911 18.251-19.178 49.308-6.6369 69.687 13.274 21.57 33.184 18.251 33.184 18.251-55.015 19.114-99.735 1.2768-104.53-48.118z" />
    <path
       id="path3424"
       style="fill:#ffd100"
       d="m409.45 508.87c47.648-38.252 166.67-56.599 255.92-14.933 89.243 41.666 116.38 121.63 81.288 194.13-40.97 84.62-150.2 182.35-293.32 160.94s-148.26-124.44-135.97-194.13c12.291-69.687 40.539-104.64 92.072-146.01z" />
    <path
       id="path4220"
       style="fill:url(#radialGradient4231)"
       d="m720.75 308.72c-2.9308 0.023-5.9136 0.35151-8.9375 1.0312-24.951 5.6086-61.394 31.54-68.031 61.406-9.1058 40.976 14.938 56.406 14.938 56.406s0.37691-22.751 6.8252-38.57c15.71-38.539 46.258-34.423 69.487-21.149 1.1812 0.67498 2.2662 1.539 3.25 2.5625 1.0313 0.7796 1.9975 1.5733 2.9062 2.4062 19.911 18.251 34.104 62.589 21.562 82.969-2.9301 4.7614-6.1774 8.2982-9.4688 10.938 44.205 11.317 40.952-71.82 29.875-103.88-10.526-25.562-34.075-54.348-62.406-54.125zm-425.56 40.78c-5.2008-0.0129-10.678 0.54134-16.438 1.75-51.281 10.762-55.391 68.039-41.469 111.16 9.2324 28.592 31.003 35.77 42.438 37.562-2.6512-2.4288-5.2159-5.4797-7.5938-9.3438-12.541-20.38-13.286-51.436 6.625-69.688 7.5229-6.896 10.245-8.8484 22.285-10.977 69.195-12.233 60.672 49.423 60.672 49.423s4.9688-1.95 11.606-16.883c6.1184-13.766-16.755-92.847-78.125-93zm239.78 131.47c-23.344 0.0737-45.524 3.4312-63.75 11.312-92.027 31.653-136.51 186.03-87.938 253.84 28.207 34.844 126.1 69.714 207.41 19.938 81.3-49.77 126.1-97.92 136.06-141.06 9.9554-43.14 1.6428-77.981-43.156-106.19-31.499-19.833-93.337-38.018-148.62-37.844z" />
  </g>
  <path
     inkscape:connector-curvature="0"
     d="m 514.8,541.58 c 149.54,2.4514 262.49,29.435 306.43,71.092 60.627,57.479 17.924,142.72 -56.383,90.703 -49.03,-34.32 -71.02,-97.36 -181.41,-100.51 -126.5,-3.61 -165.45,150.67 -307.64,138.41 -142.18,-12.26 -136.91,-128.05 -38.01,-177.63 79.01,-39.62 277.01,-22.07 277.01,-22.07 z"
     style="fill:#ffd100"
     id="path4310" />
  <path
     inkscape:connector-curvature="0"
     d="m 363.38,334.6 c 0,0 -71.33,20.104 -93.281,29.25 -21.952,9.1465 -80.5,64.031 -80.5,64.031 l 36.594,14.625 c 0,0 34.822,2.6971 77.094,7.3438 0.93732,-12.164 -5.3989,-24.028 5.6531,-41.242 30.401,-34.808 60.095,-6.8208 61.35,19.536 0.74079,7.4079 -12.417,19.205 -11.441,28.611 67.219,-3.0217 122.68,-2.8613 193.15,19.682 l -10.969,-25.594 c 0,0 -38.612,-46.75 -89.833,-63.213 -51.22,-16.464 -87.812,-53.031 -87.812,-53.031 z"
     style="fill:#ffd100"
     id="path4312" />
  <path
     inkscape:connector-curvature="0"
     d="m 630.27,479.55 c 0,0 45.294,-58.621 96.04,-72.728 50.745,-14.108 104.84,-46.292 104.84,-46.292 0,0 22.629,14.745 34.626,24.928 11.997,10.183 4.6049,26.32 4.6049,26.32 0,0 -80.017,25.665 -91.107,26.572 -11.09,0.907 -149,41.2 -149,41.2 z"
     style="fill:#ffd100"
     id="path4314" />
  <path
     inkscape:connector-curvature="0"
     d="m 683.59,455.99 c 0,0 49.017,-40.688 112.54,-51.952 20.956,-3.7163 37.624,-7.5248 37.624,-7.5248 l 10.085,14.926 -74.271,20.946 z M 347.66,363.41 c 0,0 -24.075,1.5114 -39.125,7.5312 -15.05,6.0199 -54.188,48.156 -54.188,48.156 l -28.594,6 52.656,10.531 24.375,2.5938 c -0.81908,-8.5783 -1.4055,-17.816 6.1562,-29.594 12.942,-14.818 25.735,-18.253 36.281,-15.281 18.437,0.62549 26.238,7.7662 34.031,27.25 9.0298,22.574 3,25.594 3,25.594 l 19.562,-3.0312 90.312,6.0312 c 0,0 -22.58,-34.612 -64.719,-48.156 -42.139,-13.545 -79.75,-37.625 -79.75,-37.625 z m -115.9,325.06 c 99.886,50.222 154.59,-26.968 248.32,-66.218 34.614,-13.545 67.723,-30.099 108.36,-27.089 40.634,3.0099 114.38,33.109 152,73.743 37.624,40.634 73.743,4.5149 63.209,-25.584 -10.535,-30.099 -42.139,-51.169 -93.308,-69.228 -51.169,-18.06 -240.79,-33.109 -326.58,-27.089 -85.783,6.0199 -120.4,18.06 -139.96,30.099 -51.532,33.32 -52.49,93.372 -12.04,111.37 z"
     style="fill:#ff0000"
     id="path4323" />
  <metadata
     id="metadata3166">
    <rdf:RDF>
      <cc:Work>
        <dc:format>image/svg+xml</dc:format>
        <dc:type
           rdf:resource="http://purl.org/dc/dcmitype/StillImage" />
        <cc:license
           rdf:resource="http://creativecommons.org/licenses/publicdomain/" />
        <dc:publisher>
          <cc:Agent
             rdf:about="http://openclipart.org/">
            <dc:title>Openclipart</dc:title>
          </cc:Agent>
        </dc:publisher>
        <dc:title>Jack O' Lantern: Randy</dc:title>
        <dc:date>2010-10-16T16:35:54</dc:date>
        <dc:description>An angry jack o'lantern named Randy.</dc:description>
        <dc:source>https://openclipart.org/detail/91135/jack-o’-lantern:-randy-by-simanek</dc:source>
        <dc:creator>
          <cc:Agent>
            <dc:title>Simanek</dc:title>
          </cc:Agent>
        </dc:creator>
        <dc:subject>
          <rdf:Bag>
            <rdf:li>angry</rdf:li>
            <rdf:li>halloween</rdf:li>
            <rdf:li>halloween2010</rdf:li>
            <rdf:li>jack o lantern</rdf:li>
            <rdf:li>orange</rdf:li>
            <rdf:li>pumpkin</rdf:li>
          </rdf:Bag>
        </dc:subject>
      </cc:Work>
      <cc:License
         rdf:about="http://creativecommons.org/licenses/publicdomain/">
        <cc:permits
           rdf:resource="http://creativecommons.org/ns#Reproduction" />
        <cc:permits
           rdf:resource="http://creativecommons.org/ns#Distribution" />
        <cc:permits
           rdf:resource="http://creativecommons.org/ns#DerivativeWorks" />
      </cc:License>
    </rdf:RDF>
  </metadata>
</svg>
