<?xml version="1.0" encoding="UTF-8" standalone="no"?>
<!-- Created with Inkscape (http://www.inkscape.org/) -->

<svg
   xmlns:dc="http://purl.org/dc/elements/1.1/"
   xmlns:cc="http://creativecommons.org/ns#"
   xmlns:rdf="http://www.w3.org/1999/02/22-rdf-syntax-ns#"
   xmlns:svg="http://www.w3.org/2000/svg"
   xmlns="http://www.w3.org/2000/svg"
   xmlns:xlink="http://www.w3.org/1999/xlink"
   xmlns:sodipodi="http://sodipodi.sourceforge.net/DTD/sodipodi-0.dtd"
   xmlns:inkscape="http://www.inkscape.org/namespaces/inkscape"
   id="svg3476"
   viewBox="0 0 1000 1000"
   version="1.1"
   inkscape:version="0.48.4 r9939"
   width="100%"
   height="100%"
   sodipodi:docname="jackolantern_Wolfy.svg">
  <sodipodi:namedview
     pagecolor="#ffffff"
     bordercolor="#666666"
     borderopacity="1"
     objecttolerance="10"
     gridtolerance="10"
     guidetolerance="10"
     inkscape:pageopacity="0"
     inkscape:pageshadow="2"
     inkscape:window-width="1920"
     inkscape:window-height="1017"
     id="namedview4300"
     showgrid="false"
     inkscape:zoom="0.472"
     inkscape:cx="601.90601"
     inkscape:cy="705.4594"
     inkscape:window-x="-8"
     inkscape:window-y="-8"
     inkscape:window-maximized="1"
     inkscape:current-layer="svg3476" />
  <title
     id="title4674">Jack O' Lantern: Wolfy</title>
  <defs
     id="defs3478">
    <linearGradient
       id="linearGradient4804-2"
       y2="273.14"
       gradientUnits="userSpaceOnUse"
       x2="617.36"
       y1="820.45"
       x1="485.93">
      <stop
         id="stop4800-6"
         style="stop-color:#581100;stop-opacity:.81356"
         offset="0" />
      <stop
         id="stop4802-1"
         style="stop-color:#d92c00;stop-opacity:.33051"
         offset="1" />
    </linearGradient>
    <linearGradient
       id="linearGradient4634-3"
       y2="286.09"
       gradientUnits="userSpaceOnUse"
       x2="704.56"
       y1="824.17"
       x1="622.63">
      <stop
         id="stop4630-1"
         style="stop-color:#b58b00"
         offset="0" />
      <stop
         id="stop4632-5"
         style="stop-color:#e4af00"
         offset="1" />
    </linearGradient>
    <filter
       id="filter4334-9"
       height="1.6257"
       width="1.0815"
       color-interpolation-filters="sRGB"
       y="-.31285"
       x="-.040739">
      <feGaussianBlur
         id="feGaussianBlur4336-9"
         stdDeviation="9.9696019" />
    </filter>
    <linearGradient
       id="linearGradient4475-1"
       y2="839.46"
       gradientUnits="userSpaceOnUse"
       x2="825.91"
       gradientTransform="translate(0 21.107)"
       y1="400.43"
       x1="891.92">
      <stop
         id="stop4582-9"
         style="stop-color:#ffe627"
         offset="0" />
      <stop
         id="stop4584-1"
         style="stop-color:#ffc200"
         offset=".48058" />
      <stop
         id="stop4586-0"
         style="stop-color:#f4ac00"
         offset=".72481" />
      <stop
         id="stop4588-7"
         style="stop-color:#d78b00"
         offset="1" />
    </linearGradient>
    <linearGradient
       id="linearGradient4473-5"
       y2="781.62"
       gradientUnits="userSpaceOnUse"
       x2="148.84"
       gradientTransform="translate(0 73.469)"
       y1="231.55"
       x1="181.75">
      <stop
         id="stop4558-7"
         style="stop-color:#ffdc10"
         offset="0" />
      <stop
         id="stop4560-0"
         style="stop-color:#f4b908"
         offset=".36213" />
      <stop
         id="stop4562-4"
         style="stop-color:#eea704"
         offset=".75" />
      <stop
         id="stop4576-8"
         style="stop-color:#da9302"
         offset="1" />
    </linearGradient>
    <linearGradient
       id="linearGradient4450-0"
       y2="888.02"
       xlink:href="#linearGradient4536-4"
       gradientUnits="userSpaceOnUse"
       x2="670.03"
       gradientTransform="translate(0 73.469)"
       y1="314.6"
       x1="756.42" />
    <linearGradient
       id="linearGradient4536-4">
      <stop
         id="stop4538-2"
         style="stop-color:#ffe627"
         offset="0" />
      <stop
         id="stop4542-9"
         style="stop-color:#ffc200"
         offset=".44962" />
      <stop
         id="stop4578-6"
         style="stop-color:#f4ac00"
         offset=".72481" />
      <stop
         id="stop4540-1"
         style="stop-color:#d78b00"
         offset="1" />
    </linearGradient>
    <filter
       id="filter4518-0"
       color-interpolation-filters="sRGB">
      <feGaussianBlur
         id="feGaussianBlur4520-4"
         stdDeviation="1.1877312" />
    </filter>
    <linearGradient
       id="linearGradient4463-2"
       y2="839.03"
       gradientUnits="userSpaceOnUse"
       x2="288.56"
       gradientTransform="translate(0 73.469)"
       y1="267.55"
       x1="301.8">
      <stop
         id="stop4568-2"
         style="stop-color:#ffdc10"
         offset="0" />
      <stop
         id="stop4570-0"
         style="stop-color:#f4b908"
         offset=".39532" />
      <stop
         id="stop4572-5"
         style="stop-color:#eea704"
         offset=".75" />
      <stop
         id="stop4574-5"
         style="stop-color:#c68000"
         offset="1" />
    </linearGradient>
    <filter
       id="filter4530-2"
       color-interpolation-filters="sRGB">
      <feGaussianBlur
         id="feGaussianBlur4532-9"
         stdDeviation="2.4366233" />
    </filter>
    <linearGradient
       id="linearGradient4534-0"
       y2="864.08"
       xlink:href="#linearGradient4536-4"
       gradientUnits="userSpaceOnUse"
       x2="463.35"
       gradientTransform="translate(0 73.469)"
       y1="337.86"
       x1="595.12" />
    <filter
       id="filter4510-2"
       color-interpolation-filters="sRGB">
      <feGaussianBlur
         id="feGaussianBlur4512-8"
         stdDeviation="5.0338148" />
    </filter>
    <linearGradient
       id="linearGradient4605-3"
       y2="135.3"
       xlink:href="#linearGradient4310-8"
       gradientUnits="userSpaceOnUse"
       x2="519.98"
       gradientTransform="translate(0 21.107)"
       y1="150.79"
       x1="450.79" />
    <linearGradient
       id="linearGradient4310-8">
      <stop
         id="stop4312-0"
         style="stop-color:#398c24"
         offset="0" />
      <stop
         id="stop4314-4"
         style="stop-color:#63c44b"
         offset="1" />
    </linearGradient>
    <linearGradient
       id="linearGradient4603-0"
       y2="87.518"
       xlink:href="#linearGradient4310-8"
       gradientUnits="userSpaceOnUse"
       x2="479.89"
       y1="250.69"
       x1="438.74" />
    <linearGradient
       id="linearGradient3212"
       y2="39.797"
       gradientUnits="userSpaceOnUse"
       x2="540.25"
       y1="39.797"
       x1="490.22">
      <stop
         id="stop4622-9"
         style="stop-color:#cfe96d"
         offset="0" />
      <stop
         id="stop4624-6"
         style="stop-color:#dfff57"
         offset="1" />
    </linearGradient>
    <linearGradient
       id="linearGradient4713-9-9">
      <stop
         id="stop4715-6-2"
         style="stop-color:#f7ff70"
         offset="0" />
      <stop
         id="stop4717-0-5"
         style="stop-color:#ffe900"
         offset="1" />
    </linearGradient>
    <radialGradient
       id="radialGradient4231"
       xlink:href="#linearGradient4713-9-9"
       gradientUnits="userSpaceOnUse"
       cy="695.78"
       cx="490.56"
       gradientTransform="matrix(.99998 .0060738 -.017025 2.803 38.402 -1266.1)"
       r="306.99" />
    <radialGradient
       id="radialGradient3976"
       xlink:href="#linearGradient4713-9-9"
       gradientUnits="userSpaceOnUse"
       cy="558.39"
       cx="508.81"
       gradientTransform="matrix(1 0 0 .61092 0 217.26)"
       r="344.84" />
  </defs>
  <g
     id="layer4"
     style="display:none">
    <path
       id="path4211"
       style="fill:#ffd100"
       d="m812.54 425.91c5.4736-56.368-26.548-149.33-79.643-154.31-53.095-4.9777-116.15 82.961-112.83 124.44 3.3184 41.481 69.687 58.073 69.687 58.073s-31.525-39.821-14.933-71.347c16.592-31.525 50.898-24.137 66.369-9.9554 19.911 18.251 34.111 62.581 21.57 82.961-13.274 21.57-33.184 18.251-33.184 18.251 55.015 19.114 78.165 1.2768 82.961-48.118z" />
    <path
       id="path4209"
       style="fill:#ffd100"
       d="m200.77 460.75c-5.4736-56.368 26.548-149.33 79.643-154.31 53.095-4.9777 116.15 82.961 112.83 124.44-3.3184 41.481-48.118 58.073-48.118 58.073s16.592-26.548 0-58.073-50.898-24.137-66.369-9.9554c-19.911 18.251-19.178 49.308-6.6369 69.687 13.274 21.57 33.184 18.251 33.184 18.251-55.015 19.114-99.735 1.2768-104.53-48.118z" />
    <path
       id="path3424"
       style="fill:#ffd100"
       d="m409.45 508.87c47.648-38.252 166.67-56.599 255.92-14.933 89.243 41.666 116.38 121.63 81.288 194.13-40.97 84.62-150.2 182.35-293.32 160.94s-148.26-124.44-135.97-194.13c12.291-69.687 40.539-104.64 92.072-146.01z" />
    <path
       id="path4220"
       style="fill:url(#radialGradient4231)"
       d="m720.75 308.72c-2.9308 0.023-5.9136 0.35151-8.9375 1.0312-24.951 5.6086-61.394 31.54-68.031 61.406-9.1058 40.976 14.938 56.406 14.938 56.406s0.37691-22.751 6.8252-38.57c15.71-38.539 46.258-34.423 69.487-21.149 1.1812 0.67498 2.2662 1.539 3.25 2.5625 1.0313 0.7796 1.9975 1.5733 2.9062 2.4062 19.911 18.251 34.104 62.589 21.562 82.969-2.9301 4.7614-6.1774 8.2982-9.4688 10.938 44.205 11.317 40.952-71.82 29.875-103.88-10.526-25.562-34.075-54.348-62.406-54.125zm-425.56 40.78c-5.2008-0.0129-10.678 0.54134-16.438 1.75-51.281 10.762-55.391 68.039-41.469 111.16 9.2324 28.592 31.003 35.77 42.438 37.562-2.6512-2.4288-5.2159-5.4797-7.5938-9.3438-12.541-20.38-13.286-51.436 6.625-69.688 7.5229-6.896 10.245-8.8484 22.285-10.977 69.195-12.233 60.672 49.423 60.672 49.423s4.9688-1.95 11.606-16.883c6.1184-13.766-16.755-92.847-78.125-93zm239.78 131.47c-23.344 0.0737-45.524 3.4312-63.75 11.312-92.027 31.653-136.51 186.03-87.938 253.84 28.207 34.844 126.1 69.714 207.41 19.938 81.3-49.77 126.1-97.92 136.06-141.06 9.9554-43.14 1.6428-77.981-43.156-106.19-31.499-19.833-93.337-38.018-148.62-37.844z" />
  </g>
  <g
     id="layer3">
    <path
       id="path3173"
       style="fill:#ffd100"
       d="m147.09 517.07s90.703-46.577 122.57-46.577c31.869 0 51.48-2.4514 51.48-2.4514l-9.8057 71.092 19.611 63.737 44.126-120.12 31.869 44.126 19.611-49.029s66.189 90.703 61.286 78.446c-4.9029-12.257 22.063-75.994 22.063-75.994l19.611 34.32 24.514-39.223 34.32 129.93 22.063-73.543 7.3543-58.834 125.02 14.709 156.89 88.252-51.48 107.86-93.154 75.994-4.9029-107.86-53.931-102.96-22.063 139.73-31.869 102.96-26.966 9.8057 2.4514-93.154-61.286 93.154-39.223-88.252-24.514 80.897-24.514-49.029-26.966 46.577-7.3543-98.057-53.931 98.057-19.611-71.092-26.97 66.18-49.02-117.67-17.16-83.35-22.07 100.51 4.91 63.73-100.51-117.66-39.23-98.06z" />
    <path
       id="path3175"
       style="fill:#ffd100"
       d="m759.94 414.11 125.02 68.64s-9.8057-120.12-61.286-142.18c-51.48-22.063-115.22 7.3543-115.22 7.3543l-56.383 51.48z" />
    <path
       id="path3177"
       style="fill:#ffd100"
       d="m139.73 445.98 110.31-34.32 112.77-7.3543-44.126-71.092-71.092-17.16s-66.189 17.16-85.8 41.674-22.063 88.252-22.063 88.252z" />
    <path
       id="path3179"
       style="fill:#ffd100"
       d="m433.9 365.08 29.417 42.55s36.771 6.3037 53.931 1.5759 46.577-44.126 46.577-44.126z" />
    <path
       id="path3187"
       style="fill:url(#radialGradient3976)"
       d="m518.03 494.5-4.8438 29.938-25.219 32.188c2.0201 6.0165-20.948-24.128-39.375-48.875l-42.438 20.094-0.6875-3.0312-12.938-17.875-20.812 74.688-36.844 23.156-1.375-8.875-2.5625 6.9688-19.594-63.75 4.9062-35.594c-7.9502 0.43895-82.414 4.6694-99.531 10.375-18.06 6.0199-48.178 28.585-51.188 40.625-3.0099 12.04 0.0178 55.68 13.562 76.75 9.4658 14.725 45.778 48.238 67 67.281l-0.9375-12.344 21.062-96 0.15625-4.0938 0.78125-0.0937 0.0625-0.3125 0.0625 0.28125 21.688-2.875 30.094 97.812 26.5 75.938 14.812-36.344 0.59375 2.2188 18.094-14.469s10.604 30.704 17.812 52.625l37.031-67.344 0.0625 0.90625 11.125-11.031 15.094 75.5 8.0312-13.875 0.625 1.25 10.688-17.25 9.5938 34.656 28-67.156s36.714 65.668 38.219 71.688c1.505 6.0199 27.062-76.781 27.062-76.781l34.22 18.49 1.125-1.7188-1.3125 50.625 38.219-76.469 9.0312-142.97 32.75 8.875 0.28125 1.5625 53.406 102 3.9062 86.219c7.5627-4.2225 15.028-8.6542 19.531-12.031 12.04-9.0298 36.117-36.118 48.156-57.188 12.04-21.07 24.067-60.202 22.562-84.281s-42.125-42.125-42.125-42.125l-78.281-33.125-110.34-2.7188-3.125 25.125-21.438 71.406-0.53125 4.0312-34.625-55.688-5.93-48.53-18.125 13.906-0.71875-3.0938-11-19.312zm-42.47-107.03-22.18 5.78l9.9375 14.375s36.777 6.3215 53.938 1.5938c7.2142-1.9876 16.581-10.136 25.031-18.875l-0.5-1.375-66.219-1.5zm279.94-28.59c-15.05 0-70.75 30.094-70.75 30.094l-15.219 12.812 90.406 12.312 93.219 51.188c-0.74618-18.544-4.9385-71.708-28.438-85.312-28.6-16.56-54.17-21.09-69.22-21.09zm-471.41-10.66c-11.238-0.0386-52.154 9.9002-71.906 21.188-20.568 11.753-32.442 61.886-33 64.281l70.85-22.03 112.78-7.35-12.43-20.06c-1.4061-1.4402-2.804-2.8665-4.2188-4.2812-18.06-18.06-52.694-30.12-60.219-31.625-0.4703-0.0941-1.0946-0.12243-1.8438-0.125z" />
  </g>
  <metadata
     id="metadata4298">
    <rdf:RDF>
      <cc:Work>
        <dc:format>image/svg+xml</dc:format>
        <dc:type
           rdf:resource="http://purl.org/dc/dcmitype/StillImage" />
        <cc:license
           rdf:resource="http://creativecommons.org/licenses/publicdomain/" />
        <dc:publisher>
          <cc:Agent
             rdf:about="http://openclipart.org/">
            <dc:title>Openclipart</dc:title>
          </cc:Agent>
        </dc:publisher>
        <dc:title>Jack O' Lantern: Wolfy</dc:title>
        <dc:date>2010-10-24T20:19:07</dc:date>
        <dc:description>A spooky jack o'lantern named Wolfy.</dc:description>
        <dc:source>https://openclipart.org/detail/92533/jack-o’-lantern:-wolfy-by-simanek</dc:source>
        <dc:creator>
          <cc:Agent>
            <dc:title>Simanek</dc:title>
          </cc:Agent>
        </dc:creator>
        <dc:subject>
          <rdf:Bag>
            <rdf:li>halloween</rdf:li>
            <rdf:li>halloween2010</rdf:li>
            <rdf:li>jackolantern</rdf:li>
            <rdf:li>pumpkin</rdf:li>
          </rdf:Bag>
        </dc:subject>
      </cc:Work>
      <cc:License
         rdf:about="http://creativecommons.org/licenses/publicdomain/">
        <cc:permits
           rdf:resource="http://creativecommons.org/ns#Reproduction" />
        <cc:permits
           rdf:resource="http://creativecommons.org/ns#Distribution" />
        <cc:permits
           rdf:resource="http://creativecommons.org/ns#DerivativeWorks" />
      </cc:License>
    </rdf:RDF>
  </metadata>
</svg>
