<?xml version="1.0" encoding="UTF-8" standalone="no"?>
<!-- Created with Inkscape (http://www.inkscape.org/) -->

<svg
   xmlns:dc="http://purl.org/dc/elements/1.1/"
   xmlns:cc="http://creativecommons.org/ns#"
   xmlns:rdf="http://www.w3.org/1999/02/22-rdf-syntax-ns#"
   xmlns:svg="http://www.w3.org/2000/svg"
   xmlns="http://www.w3.org/2000/svg"
   xmlns:xlink="http://www.w3.org/1999/xlink"
   xmlns:sodipodi="http://sodipodi.sourceforge.net/DTD/sodipodi-0.dtd"
   xmlns:inkscape="http://www.inkscape.org/namespaces/inkscape"
   id="svg3476"
   viewBox="0 0 1000 1000"
   version="1.1"
   inkscape:version="0.48.4 r9939"
   width="100%"
   height="100%"
   sodipodi:docname="face4.svg">
  <sodipodi:namedview
     pagecolor="#ffffff"
     bordercolor="#666666"
     borderopacity="1"
     objecttolerance="10"
     gridtolerance="10"
     guidetolerance="10"
     inkscape:pageopacity="0"
     inkscape:pageshadow="2"
     inkscape:window-width="1920"
     inkscape:window-height="1017"
     id="namedview4114"
     showgrid="false"
     inkscape:zoom="0.6675088"
     inkscape:cx="384.03588"
     inkscape:cy="549.09858"
     inkscape:window-x="-8"
     inkscape:window-y="-8"
     inkscape:window-maximized="1"
     inkscape:current-layer="svg3476" />
  <title
     id="title4674">Jack O' Lantern: Frank</title>
  <defs
     id="defs3478">
    <linearGradient
       id="linearGradient3132"
       y2="273.14"
       gradientUnits="userSpaceOnUse"
       x2="617.36"
       y1="820.45"
       x1="485.93">
      <stop
         id="stop4800-0"
         style="stop-color:#581100;stop-opacity:.81356"
         offset="0" />
      <stop
         id="stop4802-4"
         style="stop-color:#d92c00;stop-opacity:.33051"
         offset="1" />
    </linearGradient>
    <linearGradient
       id="linearGradient4634-7"
       y2="286.09"
       gradientUnits="userSpaceOnUse"
       x2="704.56"
       y1="824.17"
       x1="622.63">
      <stop
         id="stop4630-9"
         style="stop-color:#b58b00"
         offset="0" />
      <stop
         id="stop4632-1"
         style="stop-color:#e4af00"
         offset="1" />
    </linearGradient>
    <filter
       id="filter4334-5"
       height="1.6257"
       width="1.0815"
       color-interpolation-filters="sRGB"
       y="-.31285"
       x="-.040739">
      <feGaussianBlur
         id="feGaussianBlur4336-4"
         stdDeviation="9.9696019" />
    </filter>
    <linearGradient
       id="linearGradient4475-9"
       y2="839.46"
       gradientUnits="userSpaceOnUse"
       x2="825.91"
       gradientTransform="translate(0 21.107)"
       y1="400.43"
       x1="891.92">
      <stop
         id="stop4582-57"
         style="stop-color:#ffe627"
         offset="0" />
      <stop
         id="stop4584-4"
         style="stop-color:#ffc200"
         offset=".48058" />
      <stop
         id="stop4586-9"
         style="stop-color:#f4ac00"
         offset=".72481" />
      <stop
         id="stop4588-94"
         style="stop-color:#d78b00"
         offset="1" />
    </linearGradient>
    <linearGradient
       id="linearGradient4473-5"
       y2="781.62"
       gradientUnits="userSpaceOnUse"
       x2="148.84"
       gradientTransform="translate(0 73.469)"
       y1="231.55"
       x1="181.75">
      <stop
         id="stop4558-3"
         style="stop-color:#ffdc10"
         offset="0" />
      <stop
         id="stop4560-5"
         style="stop-color:#f4b908"
         offset=".36213" />
      <stop
         id="stop4562-7"
         style="stop-color:#eea704"
         offset=".75" />
      <stop
         id="stop4576-0"
         style="stop-color:#da9302"
         offset="1" />
    </linearGradient>
    <linearGradient
       id="linearGradient4450-8"
       y2="888.02"
       xlink:href="#linearGradient4536-1"
       gradientUnits="userSpaceOnUse"
       x2="670.03"
       gradientTransform="translate(0 73.469)"
       y1="314.6"
       x1="756.42" />
    <linearGradient
       id="linearGradient4536-1">
      <stop
         id="stop4538-9"
         style="stop-color:#ffe627"
         offset="0" />
      <stop
         id="stop4542-9"
         style="stop-color:#ffc200"
         offset=".44962" />
      <stop
         id="stop4578-7"
         style="stop-color:#f4ac00"
         offset=".72481" />
      <stop
         id="stop4540-8"
         style="stop-color:#d78b00"
         offset="1" />
    </linearGradient>
    <filter
       id="filter4518-2"
       color-interpolation-filters="sRGB">
      <feGaussianBlur
         id="feGaussianBlur4520-5"
         stdDeviation="1.1877312" />
    </filter>
    <linearGradient
       id="linearGradient4463-3"
       y2="839.03"
       gradientUnits="userSpaceOnUse"
       x2="288.56"
       gradientTransform="translate(0 73.469)"
       y1="267.55"
       x1="301.8">
      <stop
         id="stop4568-9"
         style="stop-color:#ffdc10"
         offset="0" />
      <stop
         id="stop4570-0"
         style="stop-color:#f4b908"
         offset=".39532" />
      <stop
         id="stop4572-2"
         style="stop-color:#eea704"
         offset=".75" />
      <stop
         id="stop4574-0"
         style="stop-color:#c68000"
         offset="1" />
    </linearGradient>
    <filter
       id="filter4530-1"
       color-interpolation-filters="sRGB">
      <feGaussianBlur
         id="feGaussianBlur4532-9"
         stdDeviation="2.4366233" />
    </filter>
    <linearGradient
       id="linearGradient4534-6"
       y2="864.08"
       xlink:href="#linearGradient4536-1"
       gradientUnits="userSpaceOnUse"
       x2="463.35"
       gradientTransform="translate(0 73.469)"
       y1="337.86"
       x1="595.12" />
    <filter
       id="filter4510-2"
       color-interpolation-filters="sRGB">
      <feGaussianBlur
         id="feGaussianBlur4512-1"
         stdDeviation="5.0338148" />
    </filter>
    <linearGradient
       id="linearGradient4605-20"
       y2="135.3"
       xlink:href="#linearGradient4310-73"
       gradientUnits="userSpaceOnUse"
       x2="519.98"
       gradientTransform="translate(0 21.107)"
       y1="150.79"
       x1="450.79" />
    <linearGradient
       id="linearGradient4310-73">
      <stop
         id="stop4312-11"
         style="stop-color:#398c24"
         offset="0" />
      <stop
         id="stop4314-9"
         style="stop-color:#63c44b"
         offset="1" />
    </linearGradient>
    <linearGradient
       id="linearGradient4603-0"
       y2="87.518"
       xlink:href="#linearGradient4310-73"
       gradientUnits="userSpaceOnUse"
       x2="479.89"
       y1="250.69"
       x1="438.74" />
    <linearGradient
       id="linearGradient3244"
       y2="39.797"
       gradientUnits="userSpaceOnUse"
       x2="540.25"
       y1="39.797"
       x1="490.22">
      <stop
         id="stop4622-7"
         style="stop-color:#cfe96d"
         offset="0" />
      <stop
         id="stop4624-7"
         style="stop-color:#dfff57"
         offset="1" />
    </linearGradient>
    <radialGradient
       id="radialGradient4030"
       gradientUnits="userSpaceOnUse"
       cy="493.47"
       cx="530.61"
       gradientTransform="matrix(1.6581 -.11806 -.049891 -.70072 -356.56 927.1)"
       r="281.39">
      <stop
         id="stop4715-0-7"
         style="stop-color:#f7ff70"
         offset="0" />
      <stop
         id="stop4717-1-0"
         style="stop-color:#ffe900"
         offset="1" />
    </radialGradient>
    <radialGradient
       id="radialGradient4171"
       gradientUnits="userSpaceOnUse"
       cy="608.53"
       cx="523.17"
       gradientTransform="matrix(-1,0,0,1.2911,1039.5,-177.16)"
       r="287.2">
      <stop
         id="stop4715-0"
         style="stop-color:#f7ff70"
         offset="0" />
      <stop
         id="stop4717-1"
         style="stop-color:#ffe900"
         offset="1" />
    </radialGradient>
  </defs>
  <g
     id="layer4"
     style="display:none">
    <path
       id="path4025"
       style="fill:#ffd100"
       d="m356.34 338.62c27.842 0.62905 49.384 21.631 57.25 80.062 12.278 91.21 31.562 114 31.562 114s-60.575 7.8794-122.09-1.1562c19.859-2.7223 46.02-11.146 48.469-36.5 3.9906-41.312-41.688-39.543-62.125-33.375s-40.644 15.233-49.438 45.969c-0.66241 2.3153-1.0144 4.4234-1.0625 6.3438-2.8711-1.2918-5.6894-2.623-8.4375-4.0625-73.67-38.589 3.5079-129.81 54.375-156.12 18.28-9.4554 35.881-15.509 51.5-15.156zm494.01 240.58s-325.12 58.135-487.32 37.921c-77.168-9.6176-158.91-69.688-158.91-69.688-41.501 23.166-19.768 64.381-14.543 105.68 0 0 20.986 56.028 74.771 80.604 125.36 57.277 304.07 37.126 414-6.5166 65.05-33.98 152.22-71.65 172-148zm-177.44-245.11c-27.842 0.62905-49.384 21.631-57.25 80.062-12.278 91.21-31.562 114-31.562 114s60.575 7.8794 122.09-1.1562c-19.859-2.7223-46.02-11.146-48.469-36.5-3.9906-41.312 41.688-39.543 62.125-33.375s40.644 15.233 49.438 45.969c0.66241 2.3153 1.0144 4.4234 1.0625 6.3438 2.8711-1.2918 5.6894-2.623 8.4375-4.0625 73.67-38.589-3.5079-129.81-54.375-156.12-18.28-9.4554-35.881-15.509-51.5-15.156z" />
    <path
       id="path4027"
       style="fill:url(#radialGradient4030)"
       d="m349.06 380.52c17.331-0.10582 34.159 19.13 36.594 56.875 2.8861 44.735 17.312 70.719 17.312 70.719l5.7812 11.531h-30.312s1.4264-1.4243 4.3125-12.969c2.8861-11.544 2.9028-21.643-4.3125-33.188-7.2152-11.544-25.968-17.318-50.5-15.875-2.4231 0.14254-4.7469 0.68544-6.9688 1.5625-4.2968 0.60368-8.2652 1.4736-11.562 2.4688-18.774 5.6661-37.346 13.797-47.062 38.906-10.993-5.9394-13.594-19.118-3.6875-54.5 10.101-36.076 60.61-54.842 80.812-63.5 3.1567-1.3529 6.3842-2.0116 9.5938-2.0312zm331.13-4.52c-17.331-0.10582-34.159 19.13-36.594 56.875-2.8861 44.735-17.312 70.719-17.312 70.719l-5.78 11.53h30.312s-1.4264-1.4243-4.3125-12.969c-2.8861-11.544-2.9028-21.643 4.3125-33.188 7.2152-11.544 25.968-17.318 50.5-15.875 2.4231 0.14254 4.7469 0.68544 6.9688 1.5625 4.2968 0.60368 8.2652 1.4736 11.562 2.4688 18.774 5.6661 37.346 13.797 47.062 38.906 10.993-5.9394 13.594-19.118 3.6875-54.5-10.101-36.076-60.61-54.842-80.812-63.5-3.16-1.34-6.38-2-9.59-2.02zm-440.64 224.27s18.76 31.747 144.31 43.292c125.55 11.544 396.84-41.848 396.84-41.848s-73.596 72.153-137.09 90.912c-63.494 18.76-207.8 21.646-230.89 21.646-23.089 0-18.76 1.443-25.975 0-7.2152-1.443-69.151-1.5299-108.11-33.277-38.962-31.747-39.078-80.724-39.078-80.724z" />
  </g>
  <path
     inkscape:connector-curvature="0"
     d="m 772.8,363.25 36,64.125 H 584.86 V 363.25 h 43.375 l -1.0312,44.906 89.156,-2.4688 16.969,-42.438 h 39.469 z m -591.11,374.59 -6.32,-67.06 c 0,0 105.87,-189.41 346.07,-189.41 240.19,0 344.49,187.83 344.49,187.83 l -23.703,94.35 -140.64,-24.705 c 0,0 11.062,-74.578 -4.7406,-112.73 -15.802,-38.156 -20.543,-27.75 -20.543,-27.75 l -52.147,114.47 c 0,0 -69.529,-31.219 -112.2,-31.219 -42.666,0 -128,38.156 -128,38.156 0,0 -37.925,-15.609 -45.826,-46.828 -7.9011,-31.219 -28.444,-52.031 -28.444,-52.031 l -12.642,29.484 c 0,0 -6.3209,64.172 3.1604,84.985 9.4813,20.813 -28.444,9.9052 -28.444,9.9052 z m 85.03,-374.59 -36,64.125 H 454.66 V 363.25 h -43.375 l 1.0312,44.906 -89.156,-2.4688 -16.969,-42.438 h -39.469 z"
     style="fill:#ffd100"
     id="path4167" />
  <path
     inkscape:connector-curvature="0"
     d="m 584.83,388.66 26.222,-4.7324 -5.6281,38.67 82.125,-0.84375 c 7.7325,-2.7048 22.936,-11.474 28.812,-16.062 l 9.5172,-23.142 23.858,7.2982 16.406,37.531 h -181.31 z m -130.14,0 -26.222,-4.7324 5.6281,38.67 -82.125,-0.84375 c -7.7325,-2.7048 -22.936,-11.474 -28.812,-16.062 l -9.5172,-23.142 -23.858,7.2982 -16.406,37.531 h 181.31 z m 64.844,113.78 c -199.39,0 -274.41,153.66 -274.41,153.66 l -9.1562,47.562 59.406,4.5938 c -1.451,-26.087 1.6875,-57.875 1.6875,-57.875 l 12.625,-29.469 c 0,0 0.28213,0.30762 0.40625,0.4375 9.0027,-13.716 31.123,-22.989 43.781,-21.406 14.783,1.8478 22.156,18.492 22.156,22.188 0,3.6957 20.344,43.406 20.344,43.406 0,0 72.042,0.0177 102.53,-0.90625 30.489,-0.92392 81.312,-8.3125 81.312,-8.3125 0,0 36.95,-67.469 52.656,-67.469 12.955,0 36.83,6.0476 45.156,8.25 0.56859,-0.0799 1.2852,0.0349 2.1875,0.5625 0.35095,0.0957 1.625,0.4375 1.625,0.4375 l 0.125,0.90625 c 3.2081,3.0591 7.9835,10.453 14.875,27.094 8.4364,20.371 9.2,51.07 8.0938,75.312 l 92.625,13.219 12.812,-49.375 c 0,0 -91.451,-162.81 -290.84,-162.81 z"
     style="fill:#ff0000"
     id="path4169" />
  <metadata
     id="metadata4112">
    <rdf:RDF>
      <cc:Work>
        <dc:format>image/svg+xml</dc:format>
        <dc:type
           rdf:resource="http://purl.org/dc/dcmitype/StillImage" />
        <cc:license
           rdf:resource="http://creativecommons.org/licenses/publicdomain/" />
        <dc:publisher>
          <cc:Agent
             rdf:about="http://openclipart.org/">
            <dc:title>Openclipart</dc:title>
          </cc:Agent>
        </dc:publisher>
        <dc:title>Jack O' Lantern: Frank</dc:title>
        <dc:date>2010-10-10T17:13:26</dc:date>
        <dc:description>A spooky jack o’ lantern named Frank.</dc:description>
        <dc:source>https://openclipart.org/detail/89413/jack-o’-lantern:-frank-by-simanek</dc:source>
        <dc:creator>
          <cc:Agent>
            <dc:title>Simanek</dc:title>
          </cc:Agent>
        </dc:creator>
        <dc:subject>
          <rdf:Bag>
            <rdf:li>halloween</rdf:li>
            <rdf:li>halloween2010</rdf:li>
            <rdf:li>jack o lantern</rdf:li>
            <rdf:li>orange</rdf:li>
            <rdf:li>pumpkin</rdf:li>
          </rdf:Bag>
        </dc:subject>
      </cc:Work>
      <cc:License
         rdf:about="http://creativecommons.org/licenses/publicdomain/">
        <cc:permits
           rdf:resource="http://creativecommons.org/ns#Reproduction" />
        <cc:permits
           rdf:resource="http://creativecommons.org/ns#Distribution" />
        <cc:permits
           rdf:resource="http://creativecommons.org/ns#DerivativeWorks" />
      </cc:License>
    </rdf:RDF>
  </metadata>
</svg>
