<?xml version="1.0" encoding="UTF-8" standalone="no"?>
<!-- Created with Inkscape (http://www.inkscape.org/) -->

<svg
   xmlns:dc="http://purl.org/dc/elements/1.1/"
   xmlns:cc="http://creativecommons.org/ns#"
   xmlns:rdf="http://www.w3.org/1999/02/22-rdf-syntax-ns#"
   xmlns:svg="http://www.w3.org/2000/svg"
   xmlns="http://www.w3.org/2000/svg"
   xmlns:xlink="http://www.w3.org/1999/xlink"
   xmlns:sodipodi="http://sodipodi.sourceforge.net/DTD/sodipodi-0.dtd"
   xmlns:inkscape="http://www.inkscape.org/namespaces/inkscape"
   id="svg3476"
   viewBox="0 0 1000 1000"
   version="1.1"
   inkscape:version="0.48.4 r9939"
   width="100%"
   height="100%"
   sodipodi:docname="face5.svg">
  <sodipodi:namedview
     pagecolor="#ffffff"
     bordercolor="#666666"
     borderopacity="1"
     objecttolerance="10"
     gridtolerance="10"
     guidetolerance="10"
     inkscape:pageopacity="0"
     inkscape:pageshadow="2"
     inkscape:window-width="1920"
     inkscape:window-height="1017"
     id="namedview4200"
     showgrid="false"
     inkscape:zoom="0.6675088"
     inkscape:cx="575.70285"
     inkscape:cy="498.19946"
     inkscape:window-x="-8"
     inkscape:window-y="-8"
     inkscape:window-maximized="1"
     inkscape:current-layer="svg3476" />
  <title
     id="title4674">Jack O' Lantern: Trent</title>
  <defs
     id="defs3478">
    <linearGradient
       id="linearGradient4804-2"
       y2="273.14"
       gradientUnits="userSpaceOnUse"
       x2="617.36"
       y1="820.45"
       x1="485.93">
      <stop
         id="stop4800-6"
         style="stop-color:#581100;stop-opacity:.81356"
         offset="0" />
      <stop
         id="stop4802-1"
         style="stop-color:#d92c00;stop-opacity:.33051"
         offset="1" />
    </linearGradient>
    <linearGradient
       id="linearGradient4634-3"
       y2="286.09"
       gradientUnits="userSpaceOnUse"
       x2="704.56"
       y1="824.17"
       x1="622.63">
      <stop
         id="stop4630-1"
         style="stop-color:#b58b00"
         offset="0" />
      <stop
         id="stop4632-5"
         style="stop-color:#e4af00"
         offset="1" />
    </linearGradient>
    <filter
       id="filter4334-9"
       height="1.6257"
       width="1.0815"
       color-interpolation-filters="sRGB"
       y="-.31285"
       x="-.040739">
      <feGaussianBlur
         id="feGaussianBlur4336-9"
         stdDeviation="9.9696019" />
    </filter>
    <linearGradient
       id="linearGradient4475-1"
       y2="839.46"
       gradientUnits="userSpaceOnUse"
       x2="825.91"
       gradientTransform="translate(0,21.107)"
       y1="400.43"
       x1="891.92">
      <stop
         id="stop4582-9"
         style="stop-color:#ffe627"
         offset="0" />
      <stop
         id="stop4584-1"
         style="stop-color:#ffc200"
         offset=".48058" />
      <stop
         id="stop4586-0"
         style="stop-color:#f4ac00"
         offset=".72481" />
      <stop
         id="stop4588-7"
         style="stop-color:#d78b00"
         offset="1" />
    </linearGradient>
    <linearGradient
       id="linearGradient4473-5"
       y2="781.62"
       gradientUnits="userSpaceOnUse"
       x2="148.84"
       gradientTransform="translate(0,73.469)"
       y1="231.55"
       x1="181.75">
      <stop
         id="stop4558-7"
         style="stop-color:#ffdc10"
         offset="0" />
      <stop
         id="stop4560-0"
         style="stop-color:#f4b908"
         offset=".36213" />
      <stop
         id="stop4562-4"
         style="stop-color:#eea704"
         offset=".75" />
      <stop
         id="stop4576-8"
         style="stop-color:#da9302"
         offset="1" />
    </linearGradient>
    <linearGradient
       id="linearGradient4450-0"
       y2="888.02"
       xlink:href="#linearGradient4536-4"
       gradientUnits="userSpaceOnUse"
       x2="670.03"
       gradientTransform="translate(0,73.469)"
       y1="314.6"
       x1="756.42" />
    <linearGradient
       id="linearGradient4536-4">
      <stop
         id="stop4538-2"
         style="stop-color:#ffe627"
         offset="0" />
      <stop
         id="stop4542-9"
         style="stop-color:#ffc200"
         offset=".44962" />
      <stop
         id="stop4578-6"
         style="stop-color:#f4ac00"
         offset=".72481" />
      <stop
         id="stop4540-1"
         style="stop-color:#d78b00"
         offset="1" />
    </linearGradient>
    <filter
       id="filter4518-0"
       color-interpolation-filters="sRGB">
      <feGaussianBlur
         id="feGaussianBlur4520-4"
         stdDeviation="1.1877312" />
    </filter>
    <linearGradient
       id="linearGradient4463-2"
       y2="839.03"
       gradientUnits="userSpaceOnUse"
       x2="288.56"
       gradientTransform="translate(0,73.469)"
       y1="267.55"
       x1="301.8">
      <stop
         id="stop4568-2"
         style="stop-color:#ffdc10"
         offset="0" />
      <stop
         id="stop4570-0"
         style="stop-color:#f4b908"
         offset=".39532" />
      <stop
         id="stop4572-5"
         style="stop-color:#eea704"
         offset=".75" />
      <stop
         id="stop4574-5"
         style="stop-color:#c68000"
         offset="1" />
    </linearGradient>
    <filter
       id="filter4530-2"
       color-interpolation-filters="sRGB">
      <feGaussianBlur
         id="feGaussianBlur4532-9"
         stdDeviation="2.4366233" />
    </filter>
    <linearGradient
       id="linearGradient4534-0"
       y2="864.08"
       xlink:href="#linearGradient4536-4"
       gradientUnits="userSpaceOnUse"
       x2="463.35"
       gradientTransform="translate(0,73.469)"
       y1="337.86"
       x1="595.12" />
    <filter
       id="filter4510-2"
       color-interpolation-filters="sRGB">
      <feGaussianBlur
         id="feGaussianBlur4512-8"
         stdDeviation="5.0338148" />
    </filter>
    <linearGradient
       id="linearGradient4605-3"
       y2="135.3"
       xlink:href="#linearGradient4310-8"
       gradientUnits="userSpaceOnUse"
       x2="519.98"
       gradientTransform="translate(0,21.107)"
       y1="150.79"
       x1="450.79" />
    <linearGradient
       id="linearGradient4310-8">
      <stop
         id="stop4312-0"
         style="stop-color:#398c24"
         offset="0" />
      <stop
         id="stop4314-4"
         style="stop-color:#63c44b"
         offset="1" />
    </linearGradient>
    <linearGradient
       id="linearGradient4603-0"
       y2="87.518"
       xlink:href="#linearGradient4310-8"
       gradientUnits="userSpaceOnUse"
       x2="479.89"
       y1="250.69"
       x1="438.74" />
    <linearGradient
       id="linearGradient3212"
       y2="39.797"
       gradientUnits="userSpaceOnUse"
       x2="540.25"
       y1="39.797"
       x1="490.22">
      <stop
         id="stop4622-9"
         style="stop-color:#cfe96d"
         offset="0" />
      <stop
         id="stop4624-6"
         style="stop-color:#dfff57"
         offset="1" />
    </linearGradient>
    <linearGradient
       id="linearGradient4713-9-9">
      <stop
         id="stop4715-6-2"
         style="stop-color:#f7ff70"
         offset="0" />
      <stop
         id="stop4717-0-5"
         style="stop-color:#ffe900"
         offset="1" />
    </linearGradient>
    <radialGradient
       id="radialGradient4425"
       xlink:href="#linearGradient4713-9-9"
       gradientUnits="userSpaceOnUse"
       cy="625.23"
       cx="542.84"
       gradientTransform="matrix(1.2169 .22058 -.19005 1.0485 -.38564 -161.71)"
       r="344.52" />
    <radialGradient
       id="radialGradient4516"
       xlink:href="#linearGradient4713-9-9"
       gradientUnits="userSpaceOnUse"
       cy="431.9"
       cx="507.6"
       gradientTransform="matrix(0.55976,0.89116,-0.89796,0.56403,614.22,-202.15)"
       r="346.72" />
  </defs>
  <g
     id="layer6"
     style="display:none">
    <path
       id="path4375"
       style="fill:#ffd100"
       d="m858.56 482.59-93.188 20.062s-98.898 40.111-117.53 45.844c-2.3119 0.71135-5.8692 1.4989-10.406 2.3125-0.36587 17.723-1.0976 39.674-2.5 57.906-2.8666 37.266 7.1852 98.896-4.2812 106.06-11.46 7.18-11.47 24.36-34.4 27.23-22.933 2.8666-57.342 7.1749-67.375 2.875s-15.75-41.562-15.75-41.562-5.7397 43.004-12.906 44.438c-7.1665 1.4333-20.056 2.8666-28.656 0-8.5998-2.8666-58.765-1.4375-74.531-1.4375s-17.208-27.24-24.375-55.906c-5.7809-23.123-9.6707-106.84-10.969-138.72-7.7372-1.3618-14.731-2.8971-20.562-4.625-38.69-11.46-170.56-60.18-170.56-60.18l-40.125 17.188s4.3064 123.29 12.906 147.66c8.5998 24.366 44.423 67.344 50.156 67.344 5.7332 0 2.848-24.369 4.2812-32.969 1.4333-8.5998 12.915-21.479 15.781-14.312 2.8666 7.1665 30.094 14.312 51.594 14.312s18.652 22.957 17.219 40.156c-1.4333 17.2-14.347 47.294 5.7188 51.594 20.066 4.2999 80.261 35.817 94.594 37.25 14.333 1.4333 108.93-4.3041 160.53-1.4375 51.599 2.8666 96.034-18.633 107.5-21.5 11.466-2.8666 15.758-8.5961 18.625-20.062 2.8666-11.466 4.298-47.29 10.031-50.156 5.7332-2.8666 54.473-11.452 55.906-5.7188 1.4333 5.7332-14.341 67.344-2.875 67.344s44.436-7.1544 54.469-17.188c10.033-10.033 55.913-38.705 68.812-65.938 12.9-27.233 31.531-139.03 31.531-139.03l1.45-50.15-30.1-28.66z" />
    <path
       id="path4380"
       style="fill:#ffd100"
       d="m427.72 334.12s-131.86 21.519-159.09 38.719c-27.24 17.2-78.85 22.91-78.85 22.91l-20.062 22.938 80.375 34.969c-4.1248-6.1653-6.3553-13.431-2.4688-20.719 9.9051-18.572 40.856-32.203 78-27.25 37.144 4.9526 71.832 12.401 70.594 34.688-0.8505 15.309-15.15 34.681-27.625 46.531l24.719 4.875 48.75-22.906s30.085-100.33 27.219-107.5c-2.8666-7.1665-41.562-27.25-41.562-27.25z" />
    <path
       id="path4384"
       style="fill:#ffd100"
       d="m607.31 366.5c-6.6301-0.0127-10.594 0.0625-10.594 0.0625s-36.487 18.165-39.188 24.656c-2.7008 6.4912 14.531 76.312 14.531 76.312l44.594 20.188c-3.504-4.0153-6.25-10.295-6.25-20.125 0-27.239 13.608-35.915 34.656-43.344 39.697-14.011 59.446-2.474 66.875 19.812 3.4664 10.399 3.958 18.936 2.5 25.812l114.19-47.781-18.875-20.75s-48.623-5.2025-74.281-20.781c-20.84-12.67-99.42-14.01-128.15-14.07z" />
    <path
       id="path4400"
       style="fill:url(#radialGradient4425)"
       d="m853.31 500.66c-11.062 0-131.16 37.925-150.12 47.406-18.963 9.4813-55.312 17.375-55.312 17.375l-11.188 10.375c-0.41885 11.212-0.95983 22.634-1.75 32.906-2.0247 26.321 2.3946 64.77 1.125 87.625 0.43869 5.4903 0.75 9.8618 0.75 11.312 0 9.4813-1.5812 30.027-11.062 33.188-9.48 3.15-36.33 12.65-67.94 12.65-31.6 0-45.81-7.91-45.81-7.91l-9.5 12.625s-30.01 6.3302-45.812 4.75l-63.219-6.3125s-17.384-17.38-22.125-72.688c-0.004-0.0414 0.003-0.0836 0-0.125-4.1897-24.434-7.2431-78.81-8.8438-113.5-28.93-11.57-102.74-42.35-122.31-47.57-23.71-6.32-50.57 9.47-50.57 9.47s-14.219 25.279-14.219 50.562 3.1562 72.688 3.1562 72.688l19.75 28.531c2.1717-6.8797 9.2069-15.095 13.156-14.25 2.1745-2.0573 5.4811-4.6675 9.75-6.375 7.9011-3.1604 58.492 7.9146 64.812 1.5938 6.3208-6.3209 33.188 6.3125 33.188 6.3125s4.7365 22.117 3.1562 28.438c-1.5802 6.3209-1.5938 42.688-1.5938 42.688s60.037 26.857 79 28.438c18.963 1.5802 77.444 3.1656 96.406 7.9062 18.963 4.7406 94.809-6.3219 109.03-11.062 14.21-4.74 30.02-12.66 30.02-12.66l15.812-47.406s23.676-15.785 44.219-12.625c20.543 3.1604 33.188 6.3125 33.188 6.3125s7.1064 5.6765 6.5 14.344c0.15067 0.16061 0.26451 0.33929 0.3125 0.53125 0.52414 2.0966-1.283 11.704-3.1875 23l48.531-26.812s45.822-44.237 50.562-53.719c4.7406-9.4813 23.71-82.18 30.031-99.562 6.3209-17.382 3.1552-58.469-7.9062-58.469zm-213.97-113.62c-30.736 0.20375-53.593 6.6552-61 14.062-9.4813 9.4813 6.3438 58.469 6.3438 58.469s16.825 10.52 26.438 16.094c-0.45722-2.3798-0.71875-5.0548-0.71875-8.0625 0-26.742 13.136-35.594 33.531-42.938 16.805-9.2651 45.443-13.192 57.688-7.75 14.222 6.3208 23.679 9.4739 30 17.375 6.3209 7.9011 1.5938 22.125 1.5938 22.125l61.625-30.031s-1.577-11.049-14.219-9.4688-69.535-23.697-113.78-28.438c-9.6788-1.037-18.894-1.4946-27.5-1.4375zm-235.78-22.23c-12.176-0.0741-27.852 0.72343-48 3.0938-53.727 6.3209-123.28 47.406-123.28 47.406l-1.5625 14.219 14.938 10.281c0.13753-2.2704 0.73726-4.566 1.9688-6.875 8.8319-16.56 34.389-29.156 66.156-28.188 1.7581-0.20198 3.5761-0.38719 5.4375-0.5 52.147-3.1604 91.625 22.125 91.625 22.125s7.9104 18.956 4.75 28.438c-3.1604 9.4813-11.062 25.312-11.062 25.312l25.281-11.062 9.5-15.812s7.8885-39.51 9.4688-55.312c1.5802-15.802-1.5677-25.277-9.4688-28.438-4.9382-1.9753-15.457-4.564-35.75-4.6875z" />
  </g>
  <path
     inkscape:connector-curvature="0"
     d="m 134.31,524.88 -2.3724,11.93 c 0,0 9.6471,79.099 21.22,96.461 11.5729,17.362 48.207,36.646 48.207,36.646 l 19.276,77.149 c 0,0 9.655,-28.923 34.73,-48.214 25.075,-19.291 40.496,-11.567 40.496,-11.567 0,0 -23.134,17.342 -19.276,30.846 3.8577,13.504 13.51,48.247 13.51,48.247 l 32.786,-34.735 17.365,-59.814 c 0,0 9.6393,36.649 7.7105,57.87 -1.9288,21.22 7.7105,46.302 7.7105,46.302 l 26.987,-5.7672 c 0,0 -25.07,-75.238 -7.7104,-100.32 17.36,-25.079 52.095,-44.391 52.095,-44.391 0,0 -13.51,36.662 -13.51,63.67 0,27.008 19.276,69.437 19.276,69.437 0,0 61.724,-59.802 75.226,-79.093 13.502,-19.291 25.075,19.302 25.075,34.735 0,15.433 1.9441,50.158 1.9441,50.158 0,0 69.442,-32.801 71.371,-67.526 1.9288,-34.724 -1.9441,-57.87 -1.9441,-57.87 l 28.931,42.447 15.454,57.87 38.552,-50.158 17.365,48.247 c 0,0 19.289,-82.975 25.075,-94.549 5.7866,-11.575 23.164,-23.135 23.164,-23.135 l 9.6216,38.558 9.6546,54.047 42.44,-44.391 c 0,0 1.9313,-28.928 -3.8552,-40.502 -5.7865,-11.575 28.931,19.279 28.931,19.279 l 11.566,34.735 27.02,-90.661 25.075,-59.814 -73.315,15.423 -50.151,82.949 c 0,0 1.9466,-21.213 -1.9111,-36.647 -3.8577,-15.433 -21.22,-34.702 -21.22,-34.702 l -63.661,75.237 -11.566,30.846 c 0,0 -21.238,-44.363 -19.309,-61.726 1.9288,-17.362 -3.8552,-32.791 -3.8552,-32.791 l -30.842,59.781 c 0,0 -11.26,-42.501 -14.399,-55.036 l -8.7649,8.7662 -26.987,26.991 -7.7104,50.158 1.9111,34.735 c 0,0 -36.636,-36.667 -44.352,-55.958 -7.7154,-19.291 -3.8552,-48.214 -3.8552,-48.214 l -19.309,26.991 -17.332,-30.846 -5.7993,77.149 c 0,0 -28.931,44.381 -28.931,34.735 0,-9.6456 7.7105,-59.814 7.7105,-59.814 l -25.075,-57.87 -36.641,32.791 3.8552,-42.447 -34.73,38.591 -9.6546,46.302 c 0,0 -25.043,-30.869 -25.043,-46.302 0,-15.433 -5.7993,-46.302 -5.7993,-46.302 l -36.641,44.391 -3.8552,52.07 c 0,0 -36.674,-40.497 -36.674,-48.214 V 558.03 l -57.861,40.502 c 0,0 17.383,-30.872 15.454,-42.447 -1.9288,-11.575 -11.599,-23.135 -11.599,-23.135 0,0 -11.576,9.623 -21.22,9.623 -7.163,0 -29.158,-11.674 -40.035,-17.697 z"
     style="fill:#ffd100"
     id="path4485" />
  <path
     inkscape:connector-curvature="0"
     d="m 247.23,465.68 c 0,0 -32.568,-90.965 -28.076,-95.457 4.4921,-4.4921 87.898,20.518 117.92,38.183 37.521,22.078 71.085,45.942 142.62,111.18 l -135.89,-32.568 7.8612,-33.691 -38.183,-10.107 -12.353,34.814 z"
     style="fill:#ffd100"
     id="path4490" />
  <path
     inkscape:connector-curvature="0"
     d="m 787.78,457.78 c 0,0 12.025,-89.385 4.3725,-108.1 -2.4045,-5.8802 -100.54,7.8764 -130.56,25.541 -37.521,22.078 -50.543,72.805 -122.08,138.04 l 135.89,-32.568 1.6201,-54.234 17.64,-13.268 23.415,58.517 z"
     style="fill:#ffd100"
     id="path4492" />
  <path
     inkscape:connector-curvature="0"
     d="m 771.25,380.28 -79.156,4.0938 -36.875,30.031 -61.438,75.062 55.969,-13.656 6.8438,-28.656 20.344,-19.062 0.0625,-1.625 17.656,-13.281 20.75,51.938 59.938,-12.5 c 0,0 2.7188,-15.016 2.7188,-30.031 0,-15.016 -6.8125,-42.312 -6.8125,-42.312 z m -514.62,21.812 -5.4688,20.5 6.8438,34.125 46.094,13 9.4062,-26.5 38.156,10.094 -0.375,1.6562 15.906,8.5625 -2.7188,20.469 69.625,17.75 c 0,0 -47.771,-40.95 -76.438,-64.156 -28.666,-23.206 -101.03,-35.5 -101.03,-35.5 z m -90.1,162.47 -4.09,42.32 62.78,49.12 16.312,55.938 c 3.9628,-4.5499 8.5709,-9.0371 13.844,-13.094 25.075,-19.291 40.5,-11.562 40.5,-11.562 0,0 -0.77845,0.61996 -1.8125,1.4688 l 19.906,-2.7188 -10.938,24.594 8.3125,33.219 11.531,-12.219 16.969,-58.469 0.0625,-0.78125 0.125,0.125 0.21875,-0.6875 c 0,0 0.1601,0.61568 0.3125,1.2188 l 28.344,28.375 c -0.46428,-12.68 0.98742,-24.213 6.0312,-31.5 17.36,-25.079 52.094,-44.375 52.094,-44.375 0,0 -0.44459,1.2944 -1.0625,3.0938 l 1.2812,-1.2812 15.031,10.906 -13.656,57.344 10.906,35.5 53.25,-55.969 18.062,1.1875 c 12.256,-10.74 22.25,23.621 22.25,37.969 0,5.5481 0.2719,13.6 0.59375,21.625 l 45.094,-25.281 16.375,-25.938 1.375,-21.844 6.8125,-23.219 1.8125,4.375 c -0.37493,-3.1544 -0.6875,-4.9688 -0.6875,-4.9688 l 28.938,42.438 9.9688,37.344 17.312,-25.938 25.938,-5.4688 0.1875,2.5625 0.59375,-0.78125 6.5625,18.188 11.75,-50 27.625,-19.875 c 7.3436,-9.5171 19.688,-17.75 19.688,-17.75 l 9.625,38.562 6.7188,37.812 15.531,-11.438 4.0938,-38.25 20.469,-21.812 c 0,0 0.70046,1.079 0.8125,1.25 -1.2362,-6.4686 29.531,20.875 29.531,20.875 l 3.3438,10.062 c 4.88,-29.14 12.74,-85.42 12.74,-85.42 l -43.76,4.87 -32.12,53.13 c 0,0 0.0698,-1.2397 0.125,-2 l -0.6875,1.3438 -16.375,-6.8438 -9.5625,-25.938 -17.562,-13.156 -42.719,50.5 -11.562,30.844 c 0,0 -1.0939,-2.3162 -2.5938,-5.6562 l -0.625,4.375 -19.125,-8.1875 -12.281,-32.781 -6.0938,-18.25 -13.281,25.75 c 0,0 -0.53998,-2.0782 -0.59375,-2.2812 l -19.625,-5.2188 v -17.75 l -12.281,6.8438 -8.1875,60.062 -15,23.188 -0.375,-0.875 0.0937,1.6562 c 0,0 -36.628,-36.677 -44.344,-55.969 -3.0167,-7.5428 -4.2562,-16.536 -4.6562,-24.719 l -16.5,0.6875 -2,2.8125 -5.0938,-9.0312 -2.2188,52.688 -43.688,39.594 0.59375,-1.1562 c -1.0484,0.58295 -1.6562,0.34219 -1.6562,-1.0625 0,-9.6456 7.6875,-59.812 7.6875,-59.812 l -14.5,-33.5 -46.719,9.5312 0.5625,-2.0625 -1.0625,0.96875 2.8125,-30.688 -11.875,18.125 -5.4375,34.125 -25.656,19.219 -0.34375,1.6562 c 0,0 -0.39844,-0.51102 -0.6875,-0.875 l -0.625,0.46875 -0.59375,-2.0312 c -4.8675,-6.2877 -18.369,-24.465 -22.156,-37.75 l -8.6562,22.031 -38.219,20.5 -0.25,-0.625 -0.15625,2.125 c 0,0 -36.688,-40.502 -36.688,-48.219 v -20.562 l -55.719,5.5625 -2.125,1.5 c 0,0 0.24721,-0.47699 0.71875,-1.3438 l -1.3438,0.125 3.91,-4.98 c 2.1011,-4.0875 4.8245,-9.6641 7.2188,-15.5 l -35.688,-12.281 z"
     style="fill:#ff0000"
     id="path4504" />
  <metadata
     id="metadata4198">
    <rdf:RDF>
      <cc:Work>
        <dc:format>image/svg+xml</dc:format>
        <dc:type
           rdf:resource="http://purl.org/dc/dcmitype/StillImage" />
        <cc:license
           rdf:resource="http://creativecommons.org/licenses/publicdomain/" />
        <dc:publisher>
          <cc:Agent
             rdf:about="http://openclipart.org/">
            <dc:title>Openclipart</dc:title>
          </cc:Agent>
        </dc:publisher>
        <dc:title>Jack O' Lantern: Trent</dc:title>
        <dc:date>2010-10-16T17:21:24</dc:date>
        <dc:description>A scary jack o'lantern named Trent.</dc:description>
        <dc:source>https://openclipart.org/detail/91147/jack-o’-lantern:-trent-by-simanek</dc:source>
        <dc:creator>
          <cc:Agent>
            <dc:title>Simanek</dc:title>
          </cc:Agent>
        </dc:creator>
        <dc:subject>
          <rdf:Bag>
            <rdf:li>halloween</rdf:li>
            <rdf:li>halloween2010</rdf:li>
            <rdf:li>jack o lantern</rdf:li>
            <rdf:li>pumpkin</rdf:li>
            <rdf:li>scary</rdf:li>
          </rdf:Bag>
        </dc:subject>
      </cc:Work>
      <cc:License
         rdf:about="http://creativecommons.org/licenses/publicdomain/">
        <cc:permits
           rdf:resource="http://creativecommons.org/ns#Reproduction" />
        <cc:permits
           rdf:resource="http://creativecommons.org/ns#Distribution" />
        <cc:permits
           rdf:resource="http://creativecommons.org/ns#DerivativeWorks" />
      </cc:License>
    </rdf:RDF>
  </metadata>
</svg>
