<?xml version="1.0" encoding="UTF-8" standalone="no"?>
<!-- Created with Inkscape (http://www.inkscape.org/) -->

<svg
   xmlns:dc="http://purl.org/dc/elements/1.1/"
   xmlns:cc="http://creativecommons.org/ns#"
   xmlns:rdf="http://www.w3.org/1999/02/22-rdf-syntax-ns#"
   xmlns:svg="http://www.w3.org/2000/svg"
   xmlns="http://www.w3.org/2000/svg"
   xmlns:xlink="http://www.w3.org/1999/xlink"
   xmlns:sodipodi="http://sodipodi.sourceforge.net/DTD/sodipodi-0.dtd"
   xmlns:inkscape="http://www.inkscape.org/namespaces/inkscape"
   id="svg3476"
   viewBox="0 0 1000 1000"
   version="1.1"
   inkscape:version="0.48.4 r9939"
   width="100%"
   height="100%"
   sodipodi:docname="jackolantern_Lou.svg">
  <sodipodi:namedview
     pagecolor="#ffffff"
     bordercolor="#666666"
     borderopacity="1"
     objecttolerance="10"
     gridtolerance="10"
     guidetolerance="10"
     inkscape:pageopacity="0"
     inkscape:pageshadow="2"
     inkscape:window-width="1920"
     inkscape:window-height="1017"
     id="namedview4481"
     showgrid="false"
     inkscape:zoom="0.472"
     inkscape:cx="589.62002"
     inkscape:cy="642.27428"
     inkscape:window-x="-8"
     inkscape:window-y="-8"
     inkscape:window-maximized="1"
     inkscape:current-layer="svg3476" />
  <title
     id="title4674">Jack O' Lantern: Lou</title>
  <defs
     id="defs3478">
    <linearGradient
       id="linearGradient4804-2"
       y2="273.14"
       gradientUnits="userSpaceOnUse"
       x2="617.36"
       y1="820.45"
       x1="485.93">
      <stop
         id="stop4800-6"
         style="stop-color:#581100;stop-opacity:.81356"
         offset="0" />
      <stop
         id="stop4802-1"
         style="stop-color:#d92c00;stop-opacity:.33051"
         offset="1" />
    </linearGradient>
    <linearGradient
       id="linearGradient4634-3"
       y2="286.09"
       gradientUnits="userSpaceOnUse"
       x2="704.56"
       y1="824.17"
       x1="622.63">
      <stop
         id="stop4630-1"
         style="stop-color:#b58b00"
         offset="0" />
      <stop
         id="stop4632-5"
         style="stop-color:#e4af00"
         offset="1" />
    </linearGradient>
    <filter
       id="filter4334-9"
       height="1.6257"
       width="1.0815"
       color-interpolation-filters="sRGB"
       y="-.31285"
       x="-.040739">
      <feGaussianBlur
         id="feGaussianBlur4336-9"
         stdDeviation="9.9696019" />
    </filter>
    <linearGradient
       id="linearGradient4475-1"
       y2="839.46"
       gradientUnits="userSpaceOnUse"
       x2="825.91"
       gradientTransform="translate(0 21.107)"
       y1="400.43"
       x1="891.92">
      <stop
         id="stop4582-9"
         style="stop-color:#ffe627"
         offset="0" />
      <stop
         id="stop4584-1"
         style="stop-color:#ffc200"
         offset=".48058" />
      <stop
         id="stop4586-0"
         style="stop-color:#f4ac00"
         offset=".72481" />
      <stop
         id="stop4588-7"
         style="stop-color:#d78b00"
         offset="1" />
    </linearGradient>
    <linearGradient
       id="linearGradient4473-5"
       y2="781.62"
       gradientUnits="userSpaceOnUse"
       x2="148.84"
       gradientTransform="translate(0 73.469)"
       y1="231.55"
       x1="181.75">
      <stop
         id="stop4558-7"
         style="stop-color:#ffdc10"
         offset="0" />
      <stop
         id="stop4560-0"
         style="stop-color:#f4b908"
         offset=".36213" />
      <stop
         id="stop4562-4"
         style="stop-color:#eea704"
         offset=".75" />
      <stop
         id="stop4576-8"
         style="stop-color:#da9302"
         offset="1" />
    </linearGradient>
    <linearGradient
       id="linearGradient4450-0"
       y2="888.02"
       xlink:href="#linearGradient4536-4"
       gradientUnits="userSpaceOnUse"
       x2="670.03"
       gradientTransform="translate(0 73.469)"
       y1="314.6"
       x1="756.42" />
    <linearGradient
       id="linearGradient4536-4">
      <stop
         id="stop4538-2"
         style="stop-color:#ffe627"
         offset="0" />
      <stop
         id="stop4542-9"
         style="stop-color:#ffc200"
         offset=".44962" />
      <stop
         id="stop4578-6"
         style="stop-color:#f4ac00"
         offset=".72481" />
      <stop
         id="stop4540-1"
         style="stop-color:#d78b00"
         offset="1" />
    </linearGradient>
    <filter
       id="filter4518-0"
       color-interpolation-filters="sRGB">
      <feGaussianBlur
         id="feGaussianBlur4520-4"
         stdDeviation="1.1877312" />
    </filter>
    <linearGradient
       id="linearGradient4463-2"
       y2="839.03"
       gradientUnits="userSpaceOnUse"
       x2="288.56"
       gradientTransform="translate(0 73.469)"
       y1="267.55"
       x1="301.8">
      <stop
         id="stop4568-2"
         style="stop-color:#ffdc10"
         offset="0" />
      <stop
         id="stop4570-0"
         style="stop-color:#f4b908"
         offset=".39532" />
      <stop
         id="stop4572-5"
         style="stop-color:#eea704"
         offset=".75" />
      <stop
         id="stop4574-5"
         style="stop-color:#c68000"
         offset="1" />
    </linearGradient>
    <filter
       id="filter4530-2"
       color-interpolation-filters="sRGB">
      <feGaussianBlur
         id="feGaussianBlur4532-9"
         stdDeviation="2.4366233" />
    </filter>
    <linearGradient
       id="linearGradient4534-0"
       y2="864.08"
       xlink:href="#linearGradient4536-4"
       gradientUnits="userSpaceOnUse"
       x2="463.35"
       gradientTransform="translate(0 73.469)"
       y1="337.86"
       x1="595.12" />
    <filter
       id="filter4510-2"
       color-interpolation-filters="sRGB">
      <feGaussianBlur
         id="feGaussianBlur4512-8"
         stdDeviation="5.0338148" />
    </filter>
    <linearGradient
       id="linearGradient4605-3"
       y2="135.3"
       xlink:href="#linearGradient4310-8"
       gradientUnits="userSpaceOnUse"
       x2="519.98"
       gradientTransform="translate(0 21.107)"
       y1="150.79"
       x1="450.79" />
    <linearGradient
       id="linearGradient4310-8">
      <stop
         id="stop4312-0"
         style="stop-color:#398c24"
         offset="0" />
      <stop
         id="stop4314-4"
         style="stop-color:#63c44b"
         offset="1" />
    </linearGradient>
    <linearGradient
       id="linearGradient4603-0"
       y2="87.518"
       xlink:href="#linearGradient4310-8"
       gradientUnits="userSpaceOnUse"
       x2="479.89"
       y1="250.69"
       x1="438.74" />
    <linearGradient
       id="linearGradient3212"
       y2="39.797"
       gradientUnits="userSpaceOnUse"
       x2="540.25"
       y1="39.797"
       x1="490.22">
      <stop
         id="stop4622-9"
         style="stop-color:#cfe96d"
         offset="0" />
      <stop
         id="stop4624-6"
         style="stop-color:#dfff57"
         offset="1" />
    </linearGradient>
    <linearGradient
       id="linearGradient4713-9-9">
      <stop
         id="stop4715-6-2"
         style="stop-color:#f7ff70"
         offset="0" />
      <stop
         id="stop4717-0-5"
         style="stop-color:#ffe900"
         offset="1" />
    </linearGradient>
    <radialGradient
       id="radialGradient3976"
       xlink:href="#linearGradient4713-9-9"
       gradientUnits="userSpaceOnUse"
       cy="558.39"
       cx="508.81"
       gradientTransform="matrix(1 0 0 .61092 0 217.26)"
       r="344.84" />
    <radialGradient
       id="radialGradient4051"
       xlink:href="#linearGradient4713-9-9"
       gradientUnits="userSpaceOnUse"
       cy="734.28"
       cx="498.59"
       gradientTransform="matrix(.95314 .30254 -.56584 1.7826 438.85 -775.89)"
       r="327.69" />
    <radialGradient
       id="radialGradient4145"
       xlink:href="#linearGradient4713-9-9"
       gradientUnits="userSpaceOnUse"
       cy="549.95"
       cx="498.7"
       gradientTransform="matrix(9.2651 .22216 -.13335 5.5613 -4048.5 -2516.8)"
       r="47.641" />
  </defs>
  <g
     id="layer3"
     style="display:none">
    <path
       id="path3173"
       style="fill:#ffd100"
       d="m147.09 517.07s90.703-46.577 122.57-46.577c31.869 0 51.48-2.4514 51.48-2.4514l-9.8057 71.092 19.611 63.737 44.126-120.12 31.869 44.126 19.611-49.029s66.189 90.703 61.286 78.446c-4.9029-12.257 22.063-75.994 22.063-75.994l19.611 34.32 24.514-39.223 34.32 129.93 22.063-73.543 7.3543-58.834 125.02 14.709 156.89 88.252-51.48 107.86-93.154 75.994-4.9029-107.86-53.931-102.96-22.063 139.73-31.869 102.96-26.966 9.8057 2.4514-93.154-61.286 93.154-39.223-88.252-24.514 80.897-24.514-49.029-26.966 46.577-7.3543-98.057-53.931 98.057-19.611-71.092-26.97 66.18-49.02-117.67-17.16-83.35-22.07 100.51 4.91 63.73-100.51-117.66-39.23-98.06z" />
    <path
       id="path3175"
       style="fill:#ffd100"
       d="m759.94 414.11 125.02 68.64s-9.8057-120.12-61.286-142.18c-51.48-22.063-115.22 7.3543-115.22 7.3543l-56.383 51.48z" />
    <path
       id="path3177"
       style="fill:#ffd100"
       d="m139.73 445.98 110.31-34.32 112.77-7.3543-44.126-71.092-71.092-17.16s-66.189 17.16-85.8 41.674-22.063 88.252-22.063 88.252z" />
    <path
       id="path3179"
       style="fill:#ffd100"
       d="m433.9 365.08 29.417 42.55s36.771 6.3037 53.931 1.5759 46.577-44.126 46.577-44.126z" />
    <path
       id="path3187"
       style="fill:url(#radialGradient3976)"
       d="m518.03 494.5-4.8438 29.938-25.219 32.188c2.0201 6.0165-20.948-24.128-39.375-48.875l-42.438 20.094-0.6875-3.0312-12.938-17.875-20.812 74.688-36.844 23.156-1.375-8.875-2.5625 6.9688-19.594-63.75 4.9062-35.594c-7.9502 0.43895-82.414 4.6694-99.531 10.375-18.06 6.0199-48.178 28.585-51.188 40.625-3.0099 12.04 0.0178 55.68 13.562 76.75 9.4658 14.725 45.778 48.238 67 67.281l-0.9375-12.344 21.062-96 0.15625-4.0938 0.78125-0.0937 0.0625-0.3125 0.0625 0.28125 21.688-2.875 30.094 97.812 26.5 75.938 14.812-36.344 0.59375 2.2188 18.094-14.469s10.604 30.704 17.812 52.625l37.031-67.344 0.0625 0.90625 11.125-11.031 15.094 75.5 8.0312-13.875 0.625 1.25 10.688-17.25 9.5938 34.656 28-67.156s36.714 65.668 38.219 71.688c1.505 6.0199 27.062-76.781 27.062-76.781l34.22 18.49 1.125-1.7188-1.3125 50.625 38.219-76.469 9.0312-142.97 32.75 8.875 0.28125 1.5625 53.406 102 3.9062 86.219c7.5627-4.2225 15.028-8.6542 19.531-12.031 12.04-9.0298 36.117-36.118 48.156-57.188 12.04-21.07 24.067-60.202 22.562-84.281s-42.125-42.125-42.125-42.125l-78.281-33.125-110.34-2.7188-3.125 25.125-21.438 71.406-0.53125 4.0312-34.625-55.688-5.93-48.53-18.125 13.906-0.71875-3.0938-11-19.312zm-42.47-107.03-22.18 5.78l9.9375 14.375s36.777 6.3215 53.938 1.5938c7.2142-1.9876 16.581-10.136 25.031-18.875l-0.5-1.375-66.219-1.5zm279.94-28.59c-15.05 0-70.75 30.094-70.75 30.094l-15.219 12.812 90.406 12.312 93.219 51.188c-0.74618-18.544-4.9385-71.708-28.438-85.312-28.6-16.56-54.17-21.09-69.22-21.09zm-471.41-10.66c-11.238-0.0386-52.154 9.9002-71.906 21.188-20.568 11.753-32.442 61.886-33 64.281l70.85-22.03 112.78-7.35-12.43-20.06c-1.4061-1.4402-2.804-2.8665-4.2188-4.2812-18.06-18.06-52.694-30.12-60.219-31.625-0.4703-0.0941-1.0946-0.12243-1.8438-0.125z" />
  </g>
  <g
     id="layer5"
     style="display:none">
    <path
       id="path4017"
       style="fill:#ffd100"
       d="m185.65 474.08 2.7301 38.221 16.381 16.381 133.77 32.761 20.476 72.348 40.951 49.142-4.0952-113.3s57.332 5.4602 106.47 9.5553c49.142 4.0952 143.33-38.221 143.33-38.221l10.92 54.602 10.92 46.412s19.111-51.872 23.206-57.332c4.0952-5.4602 27.301-79.173 27.301-79.173l79.173-34.126 36.856 4.0951 39.586-46.412-25.936 101.01-50.507 39.586-141.96 144.71-158.34 148.79-158.35-139.24-84.63-132.41-87.36-39.58-12.29-39.59z" />
    <path
       id="path4019"
       style="fill:#ffd100"
       d="m218.41 404.46 12.285 39.586 211.58 83.268 19.111-15.016-122.85-225.23s-55.967 19.111-84.633 42.316c-28.666 23.206-35.491 75.078-35.491 75.078z" />
    <path
       id="path4021"
       style="fill:#ffd100"
       d="m509.16 508.21 21.841 27.301 185.65-101.01 121.49-31.396-57.332-77.808s-64.157-45.047-109.2-36.856c-45.047 8.1903-94.188 36.856-94.188 36.856l-15.016 65.522z" />
    <path
       id="path4041"
       style="fill:url(#radialGradient4051)"
       d="m813.03 480.66-66.375 19.906-32.906 18.281c-6.8819 21.463-20.035 61.817-23.031 65.812-4.0951 5.4602-23.219 57.312-23.219 57.312l-0.31-1.35-0.19 0.97-38.16-16.59-11.625-59.719-61.375 24.875h-39.812l-87.938-11.594 1.6562 74.656-28.219 28.219-1.75-3.9375 0.1875 5.4375-40.97-49.16-17.69-62.53-133.9-25.87-18.25-6.625 8.2812 11.594 94.594 29.875 84.625 111.16 129.4 102.87 273.78-243.91 34.85-28.18 29.84-39.85-14.91 8.31-16.59-9.96zm-136.06-149.32-58.06 23.22-18.29 41.47-66.34 109.53 11.6 14.91 164.28-89.59 53.09-19.91s1.6518-29.874-13.281-48.125-73-31.5-73-31.5zm-351.75 9.9375s-19.923 1.6786-28.219 6.6562c-8.2961 4.9777-48.125 53.094-48.125 53.094l-1.6562 36.5 185.84 76.312 8.2812-11.625-116.12-160.94z" />
  </g>
  <g
     id="layer6">
    <path
       id="path4111"
       style="fill:#ffd100"
       d="m493.41 665.41h167.29l131.29-31.765 25.412-44.47 21.176-99.529-23.294-72 38.117-27.529 36 61.412 2.1176 112.23-59.294 129.18-103.76 46.588-279.53 59.294-175.76-33.882-110.12-103.76-44.47-116.47 21.176-127.06 91.058-78.353 25.412 36-67.764 67.764-4.2353 99.529 40.235 76.235 152.47 48.706z" />
    <path
       id="path4113"
       style="fill:#ffd100"
       d="m351.53 559.53s0-82.588 8.4706-167.29c8.4706-84.706 91.058-103.76 95.294-8.4706 4.2353 95.294 12.706 218.12 12.706 218.12z" />
    <path
       id="path4115"
       style="fill:#ffd100"
       d="m692.47 564.29s0-85.691-9.7026-173.58-104.3-107.66-109.15-8.7888c-4.8513 98.875-14.554 226.31-14.554 226.31z" />
    <path
       id="path4121"
       style="fill:url(#radialGradient4145)"
       d="m614.69 362.12c-12.812-0.0201-29.006 5.2637-40.219 9.625-0.39699 3.244-0.66971 6.6404-0.84375 10.188-4.86 98.88-14.57 226.32-14.57 226.32l93.6-30.84 1.68-45.41s-10.568-137.64-21.156-160.94c-2.9779-6.5514-9.9786-8.9241-18.5-8.9375zm-207.62 1c-7.7071-0.0506-13.526 2.9155-15.312 10.062-5.5146 22.058-11.016 160.29-12.375 196.47l88.62 32.23s-8.3223-120.58-12.594-215.5c-13.838-13.01-34.258-23.158-48.344-23.25zm-182.59 7.9375-55.062 57.188-19.062 91.031 42.375 129.19 84.688 44.469l16.91 19.06 31.78-8.47 160.94 25.41 152.47-23.28 152.47-33.88 63.531-116.5 14.812-69.875-23.28-57.15-27.44-13.72-4.3438 3.125 23.312 72-21.188 99.531-25.4 44.47-131.28 31.75h-167.31l-116.47 2.125-152.47-48.73-40.22-76.22 4.2188-99.531 66.844-66.875-30.844-5.125z" />
  </g>
  <metadata
     id="metadata4479">
    <rdf:RDF>
      <cc:Work>
        <dc:format>image/svg+xml</dc:format>
        <dc:type
           rdf:resource="http://purl.org/dc/dcmitype/StillImage" />
        <cc:license
           rdf:resource="http://creativecommons.org/licenses/publicdomain/" />
        <dc:publisher>
          <cc:Agent
             rdf:about="http://openclipart.org/">
            <dc:title>Openclipart</dc:title>
          </cc:Agent>
        </dc:publisher>
        <dc:title>Jack O' Lantern: Lou</dc:title>
        <dc:date>2010-10-24T20:40:37</dc:date>
        <dc:description>A happy jack o'lantern named Lou.</dc:description>
        <dc:source>https://openclipart.org/detail/92545/jack-o’-lantern:-lou-by-simanek</dc:source>
        <dc:creator>
          <cc:Agent>
            <dc:title>Simanek</dc:title>
          </cc:Agent>
        </dc:creator>
        <dc:subject>
          <rdf:Bag>
            <rdf:li>halloween</rdf:li>
            <rdf:li>halloween2010</rdf:li>
            <rdf:li>happy</rdf:li>
            <rdf:li>jack o lantern</rdf:li>
            <rdf:li>pumpkin</rdf:li>
          </rdf:Bag>
        </dc:subject>
      </cc:Work>
      <cc:License
         rdf:about="http://creativecommons.org/licenses/publicdomain/">
        <cc:permits
           rdf:resource="http://creativecommons.org/ns#Reproduction" />
        <cc:permits
           rdf:resource="http://creativecommons.org/ns#Distribution" />
        <cc:permits
           rdf:resource="http://creativecommons.org/ns#DerivativeWorks" />
      </cc:License>
    </rdf:RDF>
  </metadata>
</svg>
